<svg width="16" height="16" viewBox="0 0 16 16" fill="none" xmlns="http://www.w3.org/2000/svg">
<path d="M0.0102539 1.14031C0.0362956 1.07235 0.0571289 1.00963 0.0779622 0.941678C0.260254 0.392837 0.755046 0.0112627 1.32796 0.00603568C2.73942 0.000808628 4.15088 -0.00441842 5.56234 0.00603568C6.2863 0.0112627 6.87484 0.607146 6.88004 1.33371C6.89046 2.74501 6.89046 4.15631 6.88004 5.56762C6.87484 6.30463 6.28109 6.89529 5.5415 6.90051C4.15088 6.90574 2.75505 6.90574 1.36442 6.90051C0.734212 6.90051 0.218587 6.48758 0.0519206 5.87079C0.0415039 5.8342 0.0258789 5.79761 0.0102539 5.76624C0.0102539 4.22427 0.0102539 2.68229 0.0102539 1.14031ZM3.44255 5.65125C4.09359 5.65125 4.74463 5.64602 5.39567 5.65648C5.56755 5.65648 5.63525 5.60943 5.63525 5.42649C5.63005 4.1145 5.63005 2.80251 5.63525 1.48529C5.63525 1.3128 5.58317 1.2553 5.4113 1.26053C4.104 1.26575 2.79671 1.26575 1.48421 1.26053C1.30192 1.26053 1.25505 1.32848 1.25505 1.50097C1.26025 2.80773 1.26025 4.1145 1.25505 5.42126C1.25505 5.59898 1.30713 5.6617 1.48942 5.65648C2.14046 5.64602 2.7915 5.65125 3.44255 5.65125Z" fill="#070707"/>
<path d="M9.02051 1.14128C9.04655 1.07333 9.06738 1.01061 9.08822 0.942654C9.27051 0.393814 9.7653 0.0122393 10.3382 0.00701224C11.7497 0.00178519 13.1611 -0.00344186 14.5726 0.00701224C15.2965 0.0122393 15.8851 0.608123 15.8903 1.33468C15.9007 2.74599 15.9007 4.15729 15.8903 5.56859C15.8851 6.30561 15.2913 6.89626 14.5518 6.90149C13.1611 6.90672 11.7653 6.90672 10.3747 6.90149C9.74447 6.90149 9.22884 6.48855 9.06217 5.87176C9.05176 5.83517 9.03613 5.79858 9.02051 5.76722C9.02051 4.22524 9.02051 2.68326 9.02051 1.14128ZM12.4528 5.65223C13.1038 5.65223 13.7549 5.647 14.4059 5.65745C14.5778 5.65745 14.6455 5.61041 14.6455 5.42746C14.6403 4.11547 14.6403 2.80348 14.6455 1.48627C14.6455 1.31377 14.5934 1.25628 14.4215 1.2615C13.1143 1.26673 11.807 1.26673 10.4945 1.2615C10.3122 1.2615 10.2653 1.32946 10.2653 1.50195C10.2705 2.80871 10.2705 4.11547 10.2653 5.42224C10.2653 5.59996 10.3174 5.66268 10.4997 5.65745C11.1507 5.647 11.8018 5.65223 12.4528 5.65223Z" fill="#070707"/>
<path d="M0.0104167 10.236C0.0364583 10.1681 0.0572917 10.1053 0.078125 10.0374C0.260417 9.48854 0.755208 9.10697 1.32292 9.10174C2.73438 9.09651 4.14583 9.09128 5.55729 9.10174C6.28125 9.10697 6.86979 9.70285 6.875 10.4294C6.88542 11.8407 6.88542 13.252 6.875 14.6633C6.86979 15.4003 6.27604 15.991 5.53646 15.9962C4.13542 16.0014 2.73958 16.0014 1.33854 15.9962C0.744792 15.991 0.234375 15.5937 0.0572917 15.024C0.0416667 14.9665 0.0208333 14.9142 0 14.8619C0.0104167 13.32 0.0104167 11.778 0.0104167 10.236ZM5.63542 12.5307C5.63542 11.8825 5.63021 11.2396 5.64062 10.5914C5.64062 10.419 5.59896 10.3458 5.41146 10.351C4.10417 10.3562 2.79688 10.3562 1.48438 10.351C1.31771 10.351 1.25521 10.4033 1.26042 10.5758C1.26562 11.8878 1.26562 13.1997 1.26042 14.517C1.26042 14.6999 1.32292 14.7522 1.5 14.747C2.80208 14.7417 4.10417 14.7417 5.40625 14.747C5.58333 14.747 5.64583 14.6947 5.64062 14.5117C5.63021 13.8531 5.63542 13.1945 5.63542 12.5307Z" fill="#070707"/>
<path d="M9.02067 10.237C9.04671 10.169 9.06755 10.1063 9.08838 10.0384C9.27067 9.48952 9.76546 9.10794 10.3332 9.10272C11.7446 9.09749 13.1561 9.09226 14.5675 9.10272C15.2915 9.10794 15.88 9.70383 15.8853 10.4304C15.8957 11.8417 15.8957 13.253 15.8853 14.6643C15.88 15.4013 15.2863 15.992 14.5467 15.9972C13.1457 16.0024 11.7498 16.0024 10.3488 15.9972C9.75505 15.992 9.24463 15.5947 9.06755 15.025C9.05192 14.9675 9.03109 14.9152 9.01025 14.8629C9.02067 13.3209 9.02067 11.779 9.02067 10.237ZM14.6457 12.5317C14.6457 11.8835 14.6405 11.2406 14.6509 10.5924C14.6509 10.4199 14.6092 10.3468 14.4217 10.352C13.1144 10.3572 11.8071 10.3572 10.4946 10.352C10.328 10.352 10.2655 10.4043 10.2707 10.5767C10.2759 11.8887 10.2759 13.2007 10.2707 14.5179C10.2707 14.7009 10.3332 14.7532 10.5103 14.7479C11.8123 14.7427 13.1144 14.7427 14.4165 14.7479C14.5936 14.7479 14.6561 14.6957 14.6509 14.5127C14.6405 13.8541 14.6457 13.1955 14.6457 12.5317Z" fill="#070707"/>
</svg>
