<svg width="52" height="50" viewBox="0 0 52 50" fill="none" xmlns="http://www.w3.org/2000/svg">
<g clip-path="url(#clip0_395_986)">
<path d="M7.41828 14.2809C8.48221 14.2809 9.45749 14.2809 10.4328 14.2809C11.5854 14.2809 12.1173 15.1288 11.6001 16.1553C10.0781 19.2347 8.5561 22.2993 7.03407 25.3788C6.79764 25.8548 6.45777 26.1672 5.92581 26.1672C5.36428 26.1821 5.00964 25.8548 4.77321 25.3639C3.25118 22.3142 1.71438 19.2347 0.192358 16.1702C-0.310057 15.1437 0.221912 14.2957 1.37451 14.2957C2.32024 14.2957 3.26596 14.266 4.19691 14.3106C4.61066 14.3255 4.80276 14.1916 4.99486 13.8197C7.58082 8.67241 11.4524 4.83427 16.6243 2.37964C30.9579 -4.41893 47.8923 3.9268 51.3944 19.5025C54.3498 32.7278 46.252 45.953 33.1892 49.2407C21.2495 52.2458 8.96985 46.0274 4.27079 34.6171C3.9457 33.8435 4.07869 33.2484 4.64021 32.9063C5.2904 32.5046 6.01447 32.7724 6.36911 33.5311C6.78287 34.3939 7.13751 35.3014 7.62515 36.1345C12.3685 44.0488 19.3433 47.9762 28.5197 47.5299C38.7601 47.039 47.2421 39.4519 49.2222 29.321C51.5865 17.1967 43.7104 5.34007 31.6229 2.84082C22.2395 0.891991 12.472 5.3252 7.72859 13.7007C7.62515 13.8643 7.55127 14.028 7.41828 14.2809ZM5.89625 22.3439C6.85675 20.4249 7.75814 18.5802 8.68909 16.7057C6.78287 16.7057 4.98008 16.7057 3.08864 16.7057C4.03436 18.5951 4.95053 20.4249 5.89625 22.3439Z" fill="#070707"/>
<path d="M27.1895 11.3057C34.6962 11.3206 40.7843 17.4646 40.7695 25.0218C40.7547 32.5791 34.6223 38.738 27.16 38.6934C19.6533 38.6487 13.58 32.4899 13.5948 24.9475C13.6095 17.4348 19.7272 11.2908 27.1895 11.3057ZM27.1747 36.2983C33.3515 36.2983 38.3904 31.2551 38.4052 25.0516C38.42 18.8035 33.4254 13.7306 27.2043 13.7008C21.0128 13.6711 15.9443 18.7291 15.9295 24.9772C15.9295 31.2105 20.9684 36.2834 27.1747 36.2983Z" fill="#070707"/>
<path d="M28.3568 30.9874C28.3568 31.523 28.3568 32.0436 28.3568 32.5643C28.342 33.4123 27.8692 33.9478 27.1599 33.933C26.4801 33.9181 26.0073 33.3825 26.0073 32.5792C26.0073 32.0585 26.0073 31.5378 26.0073 30.9576C25.431 30.9576 24.899 30.9576 24.3818 30.9576C23.5838 30.9428 23.0519 30.4667 23.0519 29.7675C23.0519 29.0683 23.5838 28.5923 24.3818 28.5923C25.6969 28.5774 26.9973 28.5923 28.3125 28.5923C28.9331 28.5923 29.3912 28.2055 29.5242 27.6551C29.6424 27.1493 29.3764 26.5691 28.8888 26.3608C28.6671 26.2567 28.3863 26.2418 28.1351 26.2269C27.3076 26.1972 26.4654 26.2567 25.6526 26.1674C23.7759 25.9591 22.446 24.4269 22.4756 22.5822C22.5051 20.7375 23.8794 19.2796 25.7708 19.0862C25.8299 19.0862 25.8743 19.0713 26.022 19.0415C26.022 18.5209 26.022 18.0002 26.022 17.4646C26.0368 16.6316 26.5097 16.0811 27.219 16.096C27.9135 16.1109 28.3568 16.6167 28.3716 17.4498C28.3864 17.9704 28.3716 18.4762 28.3716 19.0862C28.9479 19.0862 29.4798 19.0862 30.0118 19.0862C30.8098 19.1011 31.3417 19.5771 31.3417 20.2614C31.3417 20.9606 30.8098 21.4367 30.0118 21.4515C28.6967 21.4664 27.3963 21.4515 26.0811 21.4515C25.4753 21.4515 25.0615 21.7788 24.9138 22.2846C24.766 22.7904 24.9285 23.3409 25.3719 23.5938C25.5935 23.7277 25.889 23.7872 26.155 23.802C26.9087 23.8318 27.6623 23.7872 28.4307 23.8169C30.2778 23.8913 31.7407 25.2302 31.918 26.941C32.0954 28.8303 31.0019 30.4221 29.1991 30.8535C28.9183 30.913 28.6819 30.9279 28.3568 30.9874Z" fill="#070707"/>
</g>
<defs>
<clipPath id="clip0_395_986">
<rect width="52" height="50" fill="white"/>
</clipPath>
</defs>
</svg>
