<svg width="50" height="50" viewBox="0 0 50 50" fill="none" xmlns="http://www.w3.org/2000/svg">
<g clip-path="url(#clip0_395_980)">
<path d="M0 10.5054C0.390625 10.2317 0.742188 9.89282 1.15885 9.68427C7.44792 6.51691 13.737 3.37562 20.026 0.208255C20.599 -0.0785019 21.0677 -0.0654675 21.6276 0.208255C28.0729 3.44079 34.5312 6.67332 40.9896 9.89282C41.4453 10.1274 41.6927 10.4663 41.6927 10.9616C41.6927 13.8292 41.6927 16.6968 41.6797 19.5644C41.6797 20.2812 41.3151 20.7244 40.7422 20.7766C40.0521 20.8287 39.5964 20.3725 39.5964 19.5774C39.5833 18.0524 39.5964 16.5143 39.5964 14.9893C39.5964 14.2202 39.5964 13.4643 39.5964 12.6301C39.4141 12.7083 39.2839 12.7474 39.1667 12.8125C33.2812 15.7583 27.3958 18.7041 21.5104 21.6629C21.0417 21.8975 20.638 21.8975 20.1693 21.6629C17.4349 20.2812 14.6745 18.8996 11.9401 17.531C11.8359 17.4789 11.7318 17.4397 11.5885 17.3746C11.5755 17.5831 11.5625 17.7526 11.5625 17.922C11.5625 19.7468 11.5625 21.5717 11.5495 23.3965C11.5495 24.0352 11.1068 24.4523 10.4948 24.4392C9.92188 24.4262 9.51823 24.0091 9.47917 23.4095C9.46615 23.2661 9.47917 23.1228 9.47917 22.9663C9.47917 20.8808 9.49219 18.7953 9.46615 16.7098C9.46615 16.5273 9.33594 16.2536 9.19271 16.1884C6.92708 15.0284 4.63542 13.8944 2.35677 12.7474C2.30469 12.7213 2.23958 12.7083 2.1224 12.6692C2.10938 12.8386 2.08333 12.9689 2.08333 13.0993C2.08333 18.4564 2.08333 23.8136 2.07031 29.1838C2.07031 29.5096 2.17448 29.666 2.46094 29.8224C7.66927 32.703 12.8646 35.6097 18.0599 38.5034C18.8932 38.9726 19.1536 39.52 18.8151 40.1327C18.4766 40.7192 17.8776 40.7974 17.0703 40.3412C11.6406 37.3172 6.21094 34.3063 0.794271 31.2693C0.494792 31.0998 0.260417 30.8131 0 30.5915C0 23.8657 0 17.1791 0 10.5054ZM12.8385 15.628C15.4297 16.9184 17.9297 18.1697 20.4167 19.434C20.7292 19.5904 20.9635 19.5774 21.276 19.421C26.7839 16.6577 32.2917 13.9074 37.7995 11.1441C37.9427 11.079 38.0599 10.9877 38.2422 10.8834C38.0469 10.7792 37.9167 10.6879 37.7734 10.6228C35.4167 9.44965 33.0599 8.27656 30.7161 7.07739C30.4036 6.92098 30.1693 6.93401 29.8698 7.09043C25.5859 9.2411 21.3021 11.3918 17.0182 13.5425C15.638 14.2202 14.2839 14.9111 12.8385 15.628ZM3.41146 10.8834C3.55469 10.9747 3.60677 11.0138 3.65885 11.0399C5.83333 12.1347 8.00781 13.2296 10.2083 14.2985C10.3906 14.3897 10.7161 14.3506 10.9115 14.2463C16.4323 11.4961 21.9531 8.73276 27.474 5.96947C27.6042 5.90429 27.7344 5.81305 27.9167 5.70878C25.651 4.57478 23.4505 3.47989 21.263 2.37197C20.9375 2.20252 20.6901 2.20252 20.3646 2.37197C15.2734 4.93975 10.1563 7.49449 5.03906 10.0492C4.51823 10.3099 4.01042 10.5836 3.41146 10.8834Z" fill="#070707"/>
<path d="M29.492 49.9998C28.7368 49.7783 28.19 49.283 27.7863 48.6182C26.4321 46.4024 24.6613 44.6036 22.4478 43.248C22.2134 43.1046 22.0051 42.9222 21.7837 42.7527C20.8462 42.0358 20.5728 40.8758 21.1066 39.8851C21.6405 38.8945 22.8254 38.4383 23.9191 38.8554C24.7525 39.1683 25.5728 39.5462 26.3801 39.9242C26.6665 40.0546 26.8358 40.0155 27.0441 39.7939C28.7368 37.943 30.4556 36.1182 32.1483 34.2673C32.3176 34.0848 32.4347 33.8502 32.5389 33.6808C32.3436 33.6156 32.1743 33.5895 32.0441 33.5113C28.9452 31.869 25.8332 30.2266 22.7342 28.5843C21.5363 27.9456 21.0806 26.7334 21.5623 25.5864C21.992 24.5567 22.9556 24.0744 24.1144 24.3221C26.2889 24.7783 28.4764 25.2475 30.6509 25.7037C33.0988 26.2251 35.5467 26.7334 37.9946 27.2678C38.2941 27.333 38.4764 27.2678 38.6717 27.0593C40.2342 25.3778 41.8618 23.7616 43.3722 22.028C44.5832 20.6333 47.2264 20.529 48.5025 21.3502C49.492 21.9759 49.8827 22.9274 49.9868 24.0223C50.117 25.3778 49.7785 26.577 48.7108 27.5416C47.0702 29.0275 45.4946 30.5786 43.867 32.0906C43.5676 32.3773 43.4894 32.625 43.5806 33.016C44.6353 37.6302 45.69 42.2444 46.7316 46.8586C47.0181 48.1229 46.5363 49.1265 45.4165 49.5567C44.3228 49.9738 43.1509 49.5306 42.5519 48.4357C40.8332 45.2684 39.1275 42.0749 37.3957 38.9076C37.2004 38.5556 36.8879 38.2689 36.6274 37.9561C36.5884 37.9821 36.5493 38.0212 36.5103 38.0473C36.6144 38.1776 36.7186 38.2949 36.8358 38.4514C36.5363 38.7381 36.2368 39.0118 35.9504 39.2856C34.3488 40.7715 32.7603 42.2574 31.1457 43.7303C30.8722 43.978 30.8202 44.1865 30.9894 44.5124C31.2759 45.0989 31.5233 45.6985 31.7707 46.2981C32.565 48.1229 32.1613 49.1787 30.3905 49.9868C30.078 49.9998 29.7915 49.9998 29.492 49.9998ZM44.9347 47.9925C44.9608 47.9665 44.9868 47.9404 45.0129 47.9013C44.8957 47.6406 44.7264 47.406 44.6613 47.1323C43.6066 42.5181 42.565 37.9039 41.4972 33.2897C41.2498 32.2339 41.5103 31.3867 42.3045 30.6437C43.9582 29.1187 45.5728 27.5676 47.2134 26.0296C47.9035 25.3778 48.1118 24.4654 47.7472 23.5921C47.6561 23.3836 47.4738 23.175 47.2785 23.0708C46.4972 22.6667 45.4165 22.8883 44.8176 23.5139C43.242 25.1823 41.6665 26.8507 40.104 28.5322C39.453 29.236 38.6587 29.5228 37.7212 29.3273C35.2342 28.8059 32.7603 28.2715 30.2863 27.7501C28.1379 27.2939 25.9894 26.8377 23.841 26.3945C23.6978 26.3685 23.5415 26.4467 23.3853 26.4727C23.4894 26.6422 23.5676 26.6683 23.6327 26.7074C26.8358 28.4018 30.0519 30.0833 33.242 31.8038C34.6743 32.5728 34.9087 34.2803 33.8019 35.4925C31.8358 37.6432 29.8436 39.7678 27.8644 41.9055C27.3957 42.4138 27.0702 42.479 26.4321 42.2053C25.4816 41.7882 24.5311 41.3711 23.5676 40.954C23.3983 40.8888 23.229 40.8367 23.0597 40.7715C23.1379 40.967 23.2551 41.0843 23.3722 41.1756C25.8592 42.8961 28.0077 44.9555 29.5962 47.5494C29.6613 47.6667 29.8306 47.7188 29.9478 47.797C29.9478 47.6537 29.9868 47.4972 29.9347 47.3669C29.5181 46.3893 29.1014 45.4248 28.6717 44.4602C28.3592 43.7303 28.4243 43.4175 29.0103 42.857C31.0676 40.9409 33.1379 39.0249 35.1952 37.0958C36.5754 35.8054 38.229 36.0791 39.1144 37.7214C40.7941 40.8367 42.4738 43.9649 44.1795 47.0801C44.3748 47.419 44.6873 47.6928 44.9347 47.9925Z" fill="#070707"/>
</g>
<defs>
<clipPath id="clip0_395_980">
<rect width="50" height="50" fill="white"/>
</clipPath>
</defs>
</svg>
