<svg width="50" height="50" viewBox="0 0 50 50" fill="none" xmlns="http://www.w3.org/2000/svg">
<g clip-path="url(#clip0_395_993)">
<path d="M0 20.4102C0 19.5312 0 18.6523 0 17.7734C0.166016 16.7871 0.244141 15.7715 0.507812 14.8047C2.50977 7.22656 7.30469 2.44141 14.9023 0.488281C15.8398 0.244141 16.8164 0.15625 17.7734 0C18.6523 0 19.5312 0 20.4102 0C20.5371 0.0292969 20.6543 0.0683594 20.7812 0.078125C23.0371 0.263672 25.2148 0.810547 27.2363 1.83594C33.7207 5.11719 37.3828 10.3711 38.1055 17.627C38.1543 18.1055 38.3105 18.3008 38.7598 18.457C44.1992 20.3125 47.7441 24.0234 49.3945 29.5117C49.6973 30.5176 49.8047 31.5723 50 32.6074C50 33.418 50 34.2383 50 35.0488C49.9707 35.1758 49.9316 35.293 49.9121 35.4199C49.6973 37.6367 49.0527 39.707 47.9688 41.6504C47.8027 41.9434 47.7832 42.207 47.8711 42.5195C48.5156 44.7949 49.1406 47.0801 49.7754 49.3652C49.8242 49.5312 49.8535 49.6973 49.8926 49.8926C49.7656 49.8633 49.707 49.8535 49.6484 49.8438C47.3145 49.1992 44.9902 48.5645 42.666 47.9004C42.2461 47.7832 41.9238 47.8516 41.5234 48.0176C40.2637 48.5645 38.9844 49.082 37.6758 49.4922C36.8359 49.7559 35.9277 49.8242 35.0586 49.9805C34.248 49.9805 33.4277 49.9805 32.6172 49.9805C32.4902 49.9512 32.373 49.9023 32.2461 49.8926C25.8301 49.2773 20.3418 44.8145 18.418 38.6133C18.3105 38.2617 18.1543 38.1348 17.793 38.1055C14.8926 37.9102 12.1777 37.0996 9.64844 35.6641C9.49219 35.5762 9.23828 35.5664 9.0625 35.6152C7.32422 36.084 5.58594 36.5625 3.84766 37.041C2.61719 37.3828 1.38672 37.7148 0.0976562 38.0664C0.146484 37.8418 0.175781 37.6855 0.214844 37.5391C0.966797 34.8145 1.70898 32.0898 2.48047 29.375C2.59766 28.9551 2.57812 28.6328 2.36328 28.2422C1.47461 26.6797 0.830078 25.0098 0.478516 23.252C0.283203 22.334 0.15625 21.3672 0 20.4102ZM4.27734 33.8965C4.42383 33.8574 4.50195 33.8477 4.58008 33.8281C6.16211 33.3887 7.74414 32.9688 9.32617 32.5098C9.70703 32.4023 9.99023 32.4512 10.3223 32.6562C14.0039 35 18.0078 35.7617 22.2852 34.9414C31.123 33.2324 36.9238 24.3652 34.8438 15.5469C33.3984 9.42383 29.5605 5.3125 23.5156 3.58398C17.5098 1.86523 12.1094 3.33008 7.65625 7.71484C2.20703 13.0957 1.39648 21.3379 5.53711 27.8809C5.73242 28.1934 5.79102 28.4668 5.68359 28.8281C5.20508 30.4883 4.75586 32.1484 4.27734 33.8965ZM38.0664 21.2988C37.4902 25.7227 35.6836 29.4824 32.5684 32.5879C29.4629 35.6836 25.7031 37.4902 21.3184 38.0566C21.3672 38.2129 21.3965 38.3203 21.4258 38.418C23.1738 43.3496 28.1543 46.9434 33.3984 47.0605C36.2305 47.1289 38.8281 46.3965 41.1914 44.834C41.4648 44.6484 41.7188 44.5898 42.0508 44.6973C42.9688 44.9805 43.8965 45.2246 44.8145 45.4785C45.0977 45.5566 45.3906 45.625 45.7227 45.7031C45.3906 44.5117 45.1172 43.3984 44.7656 42.2949C44.6094 41.7969 44.6777 41.4258 44.9512 40.9863C48.3887 35.6055 47.5781 28.7305 42.9883 24.2871C41.5918 22.9395 39.9707 21.9434 38.0664 21.2988Z" fill="#070707"/>
<path d="M16.1328 14.6287C15.166 14.6287 14.2383 14.6287 13.2715 14.6287C13.2129 13.6326 13.4668 12.7146 13.9453 11.8845C15.1758 9.74587 17.0508 8.65212 19.5117 8.8279C21.9238 9.00368 23.6719 10.2927 24.541 12.5681C25.4297 14.8826 24.9317 16.992 23.2422 18.7791C22.5684 19.4822 21.8359 20.1267 21.084 20.7615C20.6934 21.0935 20.4981 21.4451 20.5469 21.9724C20.5957 22.4705 20.5567 22.9783 20.5567 23.5056C19.5801 23.5056 18.6426 23.5056 17.627 23.5056C17.627 23.0369 17.627 22.5584 17.627 22.0799C17.6367 21.3767 17.4512 20.5955 17.7051 20.0095C17.959 19.4236 18.6621 19.0232 19.1797 18.5447C19.8438 17.9197 20.5371 17.324 21.1817 16.6795C22.0606 15.8103 22.2559 14.492 21.7383 13.3884C21.211 12.2849 20.0391 11.6209 18.8281 11.7283C17.627 11.8357 16.5918 12.6951 16.2695 13.8865C16.211 14.1209 16.1817 14.365 16.1328 14.6287Z" fill="#070707"/>
<path d="M20.5176 29.3848C19.5605 29.3848 18.6328 29.3848 17.666 29.3848C17.666 28.4277 17.666 27.4805 17.666 26.5039C18.6035 26.5039 19.541 26.5039 20.5176 26.5039C20.5176 27.4414 20.5176 28.3887 20.5176 29.3848Z" fill="#070707"/>
</g>
<defs>
<clipPath id="clip0_395_993">
<rect width="50" height="50" fill="white"/>
</clipPath>
</defs>
</svg>
