<svg width="50" height="50" viewBox="0 0 50 50" fill="none" xmlns="http://www.w3.org/2000/svg">
<g clip-path="url(#clip0_395_1000)">
<path d="M50 8.78906C50 12.6953 50 16.6016 50 20.5078C49.0332 20.5078 48.0664 20.5078 47.0703 20.5078C47.0703 30.3809 47.0703 40.1953 47.0703 50C32.3535 50 17.6465 50 2.92969 50C2.92969 40.1855 2.92969 30.3613 2.92969 20.5078C1.91406 20.5078 0.957031 20.5078 0 20.5078C0 16.6016 0 12.6953 0 8.78906C3.19336 8.78906 6.39648 8.78906 9.63867 8.78906C9.57031 8.62305 9.53125 8.50586 9.47266 8.38867C8.25195 5.80078 9.00391 2.83203 11.2988 1.13281C12.1289 0.517578 13.0762 0.214844 14.0625 0C14.5508 0 15.0391 0 15.5273 0C15.6738 0.0488281 15.8301 0.0976562 15.9766 0.136719C17.4121 0.458984 18.5742 1.20117 19.4531 2.39258C19.8242 2.90039 20.1758 3.4375 20.5566 3.93555C21.8262 5.61523 23.3398 7.05078 25 8.37891C25.1172 8.29102 25.2148 8.21289 25.3125 8.13477C27.2656 6.55273 28.9844 4.74609 30.3711 2.63672C31.0254 1.65039 31.8945 0.908203 32.998 0.46875C33.4766 0.283203 33.9746 0.15625 34.4727 0.00976562C34.9609 0.00976562 35.4492 0.00976562 35.9375 0.00976562C36.0254 0.0390625 36.1133 0.078125 36.2109 0.0976562C39.5215 0.644531 41.6992 3.85742 40.957 7.11914C40.8301 7.67578 40.5957 8.21289 40.4004 8.79883C43.6035 8.78906 46.8066 8.78906 50 8.78906ZM20.5859 20.5469C15.6641 20.5469 10.7715 20.5469 5.89844 20.5469C5.89844 29.4043 5.89844 38.2324 5.89844 47.0508C10.8105 47.0508 15.6836 47.0508 20.5859 47.0508C20.5859 38.2031 20.5859 29.3945 20.5859 20.5469ZM29.4238 20.5273C29.4238 29.3848 29.4238 38.2129 29.4238 47.0312C34.3457 47.0312 39.2285 47.0312 44.1113 47.0312C44.1113 38.1836 44.1113 29.3652 44.1113 20.5273C39.2188 20.5273 34.3359 20.5273 29.4238 20.5273ZM2.94922 17.5391C8.84766 17.5391 14.7168 17.5391 20.5664 17.5391C20.5664 15.5762 20.5664 13.6523 20.5664 11.7383C14.6777 11.7383 8.82812 11.7383 2.94922 11.7383C2.94922 13.6816 2.94922 15.5957 2.94922 17.5391ZM26.4258 47.0508C26.4258 35.2539 26.4258 23.4961 26.4258 11.748C25.4492 11.748 24.5117 11.748 23.5547 11.748C23.5547 23.5254 23.5547 35.2832 23.5547 47.0508C24.5215 47.0508 25.459 47.0508 26.4258 47.0508ZM47.0508 11.748C41.1523 11.748 35.293 11.748 29.4336 11.748C29.4336 13.7109 29.4336 15.6348 29.4336 17.5488C35.3223 17.5488 41.1719 17.5488 47.0508 17.5488C47.0508 15.6152 47.0508 13.7012 47.0508 11.748ZM20.8301 8.7793C20.8789 8.7207 20.9277 8.66211 20.9766 8.60352C20.5664 8.24219 20.0977 7.92969 19.7559 7.50977C18.7988 6.34766 17.9004 5.12695 16.9531 3.95508C16.3086 3.16406 15.4297 2.85156 14.4336 2.95898C12.9102 3.125 11.7773 4.44336 11.8359 5.9375C11.8945 7.49023 13.0957 8.74023 14.6875 8.76953C16.7285 8.81836 18.7793 8.7793 20.8301 8.7793ZM29.1309 8.78906C30.791 8.78906 32.4121 8.78906 34.0332 8.78906C34.5215 8.78906 35.0098 8.80859 35.498 8.76953C36.875 8.64258 37.9199 7.65625 38.1445 6.29883C38.3594 5.0293 37.6562 3.74023 36.4453 3.19336C35.2441 2.64648 33.8281 2.98828 32.9883 4.0625C32.5293 4.64844 32.1387 5.29297 31.6602 5.86914C30.8496 6.8457 30 7.7832 29.1309 8.78906Z" fill="#070707"/>
</g>
<defs>
<clipPath id="clip0_395_1000">
<rect width="50" height="50" fill="white"/>
</clipPath>
</defs>
</svg>
