<svg width="52" height="52" viewBox="0 0 52 52" fill="none" xmlns="http://www.w3.org/2000/svg">
<g clip-path="url(#clip0_395_2403)">
<path d="M0 18.5875C0 14.3229 0 10.0584 0 5.7939C0.0270763 5.72621 0.0676907 5.67206 0.0812289 5.60437C0.676907 3.04566 2.46394 1.6377 5.09034 1.6377C13.0372 1.6377 20.9977 1.6377 28.9445 1.6377C32.0042 1.6377 34.0214 3.65488 34.0214 6.72804C34.0214 9.17844 34.0214 11.6288 34.0214 14.0928C34.0214 14.2688 34.0214 14.4583 34.0214 14.702C34.2921 14.702 34.5087 14.702 34.7253 14.702C38.9357 14.702 43.1596 14.6749 47.37 14.7291C49.9693 14.7697 51.9594 16.8546 51.9729 19.4539C52 22.7572 52 26.0605 51.9729 29.3503C51.9458 31.1915 51.0659 32.5588 49.4684 33.4794C49.3465 33.5471 49.2247 33.6148 49.0758 33.696C49.157 33.7637 49.1976 33.7908 49.2382 33.8179C51.1065 34.7791 52 36.3224 51.9865 38.4208C51.9729 39.7882 51.9865 41.1555 51.9865 42.5364C51.9865 43.0915 52.0135 43.6601 51.9323 44.2016C51.6886 45.948 50.7274 47.18 49.1435 47.9381C48.8185 48.0871 48.6832 48.2766 48.7102 48.6286C48.7373 49.0618 48.6832 49.5086 48.7238 49.9418C48.805 50.8895 48.4801 51.5799 47.6136 51.9996C43.0107 51.9996 38.4077 51.9996 33.8047 51.9996C32.9112 51.6611 32.5592 50.9978 32.5998 50.0501C32.6269 49.4815 32.5863 48.8993 32.6134 48.3307C32.6269 47.9788 32.5186 47.7351 32.2749 47.4914C30.7045 45.948 29.1612 44.3776 27.6043 42.8343C26.7649 42.0084 26.2098 41.0201 26.1422 39.8559C26.0745 38.8134 26.0474 37.7439 26.1692 36.715C26.2775 35.835 26.6295 34.9821 26.8597 34.1292C25.5059 34.1292 24.0844 34.1292 22.6493 34.1292C22.6358 34.3323 22.6222 34.4812 22.6087 34.6301C22.3244 37.0941 20.4426 38.9488 18.0463 38.9894C15.1898 39.0436 12.3332 39.0436 9.46316 38.9894C7.17522 38.9488 5.23926 37.1889 4.9685 34.928C4.83312 33.7231 4.88727 32.4911 4.87373 31.2862C4.87373 28.2131 6.87738 26.1959 9.95053 26.1823C11.8594 26.1823 13.7683 26.1823 15.6907 26.1823C15.8802 26.1823 16.0833 26.1823 16.2864 26.1823C16.2864 24.9639 16.2864 23.8402 16.2864 22.6624C16.0562 22.6624 15.8532 22.6624 15.6636 22.6624C12.076 22.6624 8.48841 22.676 4.90081 22.676C2.49102 22.676 0.622755 21.1732 0.094767 18.8311C0.0812288 18.7364 0.0270763 18.6687 0 18.5875ZM30.9617 14.702C30.9753 14.4989 30.9888 14.35 30.9888 14.2011C30.9888 11.6695 30.9888 9.12429 30.9888 6.59265C30.9888 5.37422 30.2848 4.69732 29.0529 4.69732C21.0383 4.69732 13.0237 4.69732 5.00911 4.69732C3.75007 4.69732 3.05962 5.38776 3.05962 6.63327C3.05962 10.3156 3.05962 14.0116 3.05962 17.6939C3.05962 18.9259 3.75007 19.6163 4.9685 19.6163C8.58318 19.6163 12.2114 19.6028 15.8261 19.6028C15.9885 19.6028 16.151 19.5893 16.2999 19.5757C16.3405 19.2102 16.3541 18.9124 16.4082 18.6145C16.8685 16.2589 18.7639 14.7155 21.2684 14.702C24.301 14.6885 27.32 14.702 30.3525 14.702C30.5285 14.702 30.7316 14.702 30.9617 14.702ZM32.6134 31.029C32.6134 30.7176 32.6134 30.501 32.6134 30.2844C32.6269 28.7004 32.5728 27.1029 32.6946 25.519C32.8841 23.0821 34.7524 21.3763 37.1893 21.2545C39.5991 21.1462 41.5756 22.6624 42.063 25.0316C42.1578 25.5054 42.1849 26.0063 42.1984 26.4937C42.2119 27.9829 42.1984 29.4586 42.1984 30.9748C42.4015 30.9884 42.5504 31.0019 42.6993 31.0019C44.1343 31.0019 45.5694 31.0019 47.018 31.0019C48.277 31.0019 48.9404 30.3115 48.9404 29.0389C48.9404 25.9387 48.9404 22.852 48.9404 19.7517C48.9404 18.4115 48.2906 17.7481 46.9503 17.7481C38.4212 17.7481 29.8922 17.7481 21.3632 17.7481C20.0094 17.7481 19.3595 18.3979 19.3595 19.7247C19.3595 22.8384 19.3595 25.9522 19.3595 29.066C19.3595 30.3927 20.0364 31.0561 21.3767 31.0425C23.5564 31.029 25.736 31.029 27.9292 31.0155C29.4725 31.0155 31.0023 31.029 32.6134 31.029ZM32.6134 34.0615C30.894 34.0615 29.4996 35.1581 29.2424 36.7421C29.1205 37.5002 29.1747 38.2854 29.1476 39.0707C29.107 39.7476 29.3507 40.2756 29.8381 40.7494C31.5845 42.4687 33.3038 44.2151 35.0502 45.948C35.4835 46.3813 35.7136 46.8686 35.6865 47.4778C35.6595 47.9652 35.6865 48.4526 35.6865 48.9129C39.0711 48.9129 42.3744 48.9129 45.7048 48.9129C45.7048 48.3443 45.7048 47.8298 45.7048 47.3018C45.6912 46.5979 46.0161 46.1105 46.6389 45.7991C47.0315 45.6096 47.4241 45.393 47.8167 45.2034C48.6155 44.8379 48.981 44.2287 48.9675 43.3487C48.9539 41.7377 48.9675 40.1402 48.9675 38.5291C48.9675 37.2295 48.629 36.7692 47.37 36.3495C45.0685 35.5778 42.7534 34.8061 40.452 34.0345C39.5043 33.7096 39.1929 33.2763 39.1794 32.2745C39.1794 30.3792 39.1794 28.4838 39.1794 26.5885C39.1794 26.2906 39.1794 25.9793 39.1252 25.6814C38.9492 24.6661 38.0016 24.0704 37.0133 24.3276C36.1333 24.5442 35.6865 25.1805 35.6865 26.2365C35.6865 29.8241 35.6865 33.4117 35.6865 36.9993C35.6865 37.2024 35.6865 37.4055 35.673 37.6085C35.5918 38.3531 35.0367 38.8811 34.2921 38.9217C33.4934 38.9623 32.8706 38.5427 32.7081 37.7981C32.654 37.5408 32.6405 37.2565 32.6405 36.9993C32.6134 36.0246 32.6134 35.0634 32.6134 34.0615ZM13.7277 35.9569C15.0815 35.9569 16.4353 35.9704 17.7891 35.9569C18.7774 35.9433 19.4949 35.2664 19.5897 34.3188C19.6168 34.0074 19.5355 33.8449 19.2242 33.7231C17.4642 32.965 16.5571 31.5705 16.3541 29.6887C16.3135 29.3503 16.2322 29.2284 15.8802 29.2284C13.8495 29.242 11.8188 29.2284 9.78808 29.242C8.6238 29.2555 7.94689 29.9595 7.93335 31.1238C7.91981 32.0985 7.91981 33.0868 7.93335 34.0615C7.94689 35.2664 8.65087 35.9704 9.86931 35.9704C11.1554 35.9569 12.4416 35.9569 13.7277 35.9569Z" fill="#FC5F49"/>
<path d="M44.7164 11.1961C43.8364 11.1961 42.9564 11.2232 42.0764 11.1961C39.6531 11.1013 37.6765 9.17893 37.5547 6.76914C37.5141 5.74024 37.487 4.68426 37.6765 3.69598C38.0827 1.58403 40.0051 0.0677576 42.1441 0.0271432C43.8635 6.68671e-05 45.5963 6.68671e-05 47.3157 0.0271432C49.8473 0.0677576 51.9051 2.12556 51.9593 4.67073C51.9728 5.52363 51.9999 6.40361 51.878 7.24297C51.5396 9.47677 49.6578 11.1149 47.3969 11.1961C46.5034 11.2232 45.6099 11.1961 44.7164 11.1961ZM44.757 8.16357C45.5828 8.16357 46.4086 8.1771 47.2345 8.15003C48.2092 8.12295 48.9132 7.40543 48.9267 6.43068C48.9403 5.88916 48.9403 5.34763 48.9267 4.80611C48.8997 3.79075 48.1821 3.05969 47.1532 3.05969C45.5422 3.04615 43.9447 3.04615 42.3337 3.05969C41.3183 3.07323 40.6143 3.75013 40.5602 4.76549C40.5331 5.30702 40.5466 5.84854 40.5602 6.39007C40.5872 7.47312 41.2777 8.15003 42.3607 8.16357C43.173 8.16357 43.9582 8.16357 44.757 8.16357Z" fill="#FC5F49"/>
</g>
<defs>
<clipPath id="clip0_395_2403">
<rect width="52" height="52" fill="white"/>
</clipPath>
</defs>
</svg>
