<svg width="59" height="52" viewBox="0 0 59 52" fill="none" xmlns="http://www.w3.org/2000/svg">
<g clip-path="url(#clip0_395_2419)">
<path d="M0 51.165C0.0768229 50.423 0.16901 49.681 0.215104 48.9236C0.645312 42.7559 1.06016 36.5883 1.475 30.4206C1.84375 25.0258 2.19714 19.6311 2.55052 14.2363C2.61198 13.3088 2.6888 12.3814 2.76562 11.4075C8.06641 11.4075 13.3365 11.4075 18.6526 11.4075C18.6372 7.62038 20.0047 4.51336 22.9701 2.21015C25.1826 0.494334 27.7023 -0.201267 30.4833 0.0306003C35.907 0.494334 40.5164 5.17804 40.3628 11.3612C45.6328 11.3612 50.9029 11.3612 56.2497 11.3612C57.1716 24.9022 58.0781 38.3968 59 51.9842C58.7542 51.9842 58.5544 51.9842 58.3547 51.9842C39.1029 51.9842 19.8357 51.9842 0.583854 51.9842C0.399479 51.9842 0.19974 51.9688 0.0153646 51.9533C0 51.706 0 51.4277 0 51.165ZM53.0078 14.9165C37.2898 14.9165 21.6487 14.9165 5.97682 14.9165C5.22396 26.1233 4.45573 37.2839 3.70286 48.4599C20.9266 48.4599 38.0888 48.4599 55.2818 48.4599C54.5289 37.253 53.776 26.1079 53.0078 14.9165ZM36.8135 11.3921C37.1669 8.84154 35.6305 5.92002 33.2336 4.51336C30.6216 2.96758 27.3951 3.16853 24.9828 5.06984C22.9701 6.66199 22.0635 8.79517 22.1557 11.3921C27.0724 11.3921 31.9276 11.3921 36.8135 11.3921Z" fill="#FC5F49"/>
<path d="M29.4846 26.8502C33.7867 21.9965 41.1156 24.3924 42.3448 29.9573C41.1924 29.9573 40.0401 29.9727 38.9031 29.9418C38.7648 29.9418 38.5958 29.6945 38.4883 29.5399C37.4742 28.0405 35.6765 27.3913 33.9864 27.9323C32.3117 28.4733 31.1747 30.0655 31.2208 31.8431C31.2669 33.6053 32.4961 35.1202 34.2169 35.5684C35.8456 35.9858 37.5357 35.3211 38.4729 33.8681C38.6726 33.5589 38.8724 33.4353 39.2565 33.4353C40.2706 33.4662 41.2846 33.4507 42.3909 33.4507C41.6995 35.9549 40.2398 37.6861 37.9044 38.6445C35.5997 39.6029 32.2041 39.4947 29.4846 36.5577C27.1031 39.0464 24.2607 39.8657 21.0187 38.5982C18.714 37.7016 17.2851 35.924 16.5784 33.4353C17.7922 33.4353 18.9291 33.4198 20.0815 33.4507C20.2198 33.4507 20.3888 33.698 20.4963 33.8681C21.4797 35.352 23.2466 36.0012 24.9367 35.5066C26.5807 35.0119 27.7484 33.4816 27.7638 31.7504C27.7791 30.0036 26.6422 28.4269 24.9828 27.9014C23.3234 27.3758 21.4797 28.0096 20.5424 29.4935C20.312 29.849 20.0815 29.9727 19.6667 29.9573C18.668 29.9263 17.6693 29.9418 16.5937 29.9418C17.3159 27.3758 18.8216 25.5672 21.2646 24.7016C24.4297 23.6041 27.1492 24.4388 29.4846 26.8502Z" fill="#FC5F49"/>
</g>
<defs>
<clipPath id="clip0_395_2419">
<rect width="59" height="52" fill="white"/>
</clipPath>
</defs>
</svg>
