<svg width="50" height="52" viewBox="0 0 50 52" fill="none" xmlns="http://www.w3.org/2000/svg">
<g clip-path="url(#clip0_395_2389)">
<path d="M24.3953 52C23.376 51.7698 22.5606 51.1742 21.7316 50.592C20.6035 49.7797 19.4619 48.981 18.3067 48.2093C18.0349 48.0198 17.6544 47.8979 17.3282 47.8844C15.6429 47.8302 13.9713 47.8438 12.2861 47.8032C10.1251 47.7626 8.84762 46.8284 8.1409 44.7977C7.58369 43.2002 7.05365 41.6027 6.48284 40.0052C6.38771 39.7209 6.18385 39.4366 5.93922 39.2471C4.60734 38.2182 3.26186 37.2299 1.91639 36.2281C0.136011 34.9013 -0.353252 33.3851 0.285508 31.2866C0.774772 29.7027 1.27763 28.1323 1.73971 26.5348C1.83484 26.1963 1.83484 25.7902 1.73971 25.4652C1.25044 23.8001 0.720409 22.1349 0.217555 20.4697C-0.326071 18.6962 0.190374 17.0851 1.67175 15.9615C3.03082 14.9461 4.37629 13.9172 5.74895 12.9154C6.15667 12.6175 6.41489 12.2791 6.56439 11.8053C7.08083 10.2348 7.62446 8.66441 8.16809 7.10752C8.82044 5.22572 10.1115 4.26451 12.1366 4.21036C13.781 4.16975 15.4255 4.15621 17.0836 4.15621C17.6136 4.15621 18.0621 4.02083 18.497 3.70945C19.856 2.72117 21.2423 1.7735 22.6149 0.812288C24.1643 -0.270763 25.8359 -0.270763 27.3989 0.812288C28.8395 1.80057 30.2529 2.82947 31.7071 3.80422C31.9925 3.99375 32.3866 4.12913 32.74 4.14267C34.3844 4.19682 36.0289 4.19682 37.687 4.2239C39.943 4.26451 41.1934 5.18511 41.9273 7.32413C42.4709 8.9081 43.0009 10.4921 43.5717 12.0625C43.6669 12.3332 43.8707 12.604 44.0882 12.7665C45.488 13.836 46.9014 14.8784 48.3149 15.9479C49.8506 17.1122 50.3671 18.6826 49.7962 20.5238C49.2934 22.1619 48.7769 23.773 48.3013 25.4246C48.1926 25.7902 48.1926 26.2369 48.3013 26.6024C48.7769 28.2541 49.307 29.8922 49.8098 31.5439C50.3535 33.3444 49.837 34.9284 48.3149 36.0791C46.9558 37.0945 45.6103 38.1234 44.2377 39.1252C43.8435 39.4095 43.6125 39.748 43.463 40.2083C42.9466 41.7787 42.3893 43.3491 41.8593 44.906C41.207 46.8014 39.9158 47.7626 37.9044 47.8167C36.26 47.8573 34.6155 47.8709 32.9574 47.8709C32.4274 47.8709 31.9789 47.9927 31.544 48.3176C30.4975 49.0893 29.4103 49.8204 28.3502 50.5785C27.5076 51.1742 26.6786 51.7834 25.6457 52.0135C25.2108 52 24.803 52 24.3953 52ZM46.7927 19.0888C46.6568 18.9263 46.5209 18.6691 46.3035 18.5066C44.8764 17.4236 43.4358 16.3405 41.9952 15.271C41.2749 14.743 40.7856 14.0526 40.5002 13.2132C39.943 11.5616 39.3722 9.92346 38.8014 8.2718C38.5432 7.54074 38.4345 7.45952 37.6734 7.44598C36.0153 7.4189 34.3437 7.39182 32.6856 7.39182C31.6255 7.39182 30.6878 7.09399 29.8316 6.47123C28.4861 5.49648 27.1135 4.56235 25.7544 3.60115C25.0613 3.11377 24.9933 3.11377 24.273 3.61468C22.9004 4.57589 21.5141 5.52356 20.155 6.51185C19.3532 7.08045 18.4834 7.37829 17.4913 7.37829C15.7653 7.39182 14.0257 7.43244 12.2996 7.43244C11.7424 7.43244 11.4298 7.64905 11.2532 8.19057C10.6824 9.89638 10.0844 11.5616 9.51356 13.2403C9.22816 14.0661 8.75248 14.743 8.04577 15.2575C6.61875 16.3135 5.20532 17.3965 3.76471 18.4525C3.30263 18.7909 3.19391 19.1429 3.37059 19.6709C3.90062 21.2955 4.37629 22.9336 4.89274 24.5582C5.20532 25.5329 5.20532 26.4806 4.89274 27.4418C4.3627 29.0799 3.87344 30.7316 3.357 32.3832C3.2075 32.8706 3.30263 33.2091 3.72394 33.5204C5.16455 34.5764 6.57798 35.6595 8.005 36.7154C8.73889 37.257 9.24175 37.9474 9.52715 38.8139C10.0844 40.4655 10.6552 42.1036 11.226 43.7553C11.4706 44.4593 11.5929 44.554 12.3268 44.554C14.0392 44.5811 15.7517 44.6082 17.4777 44.6217C18.4562 44.6353 19.3396 44.9195 20.1414 45.4882C21.5005 46.4629 22.8868 47.4241 24.2594 48.3853C24.9933 48.8998 25.0341 48.8998 25.7816 48.3718C27.127 47.4241 28.4861 46.5035 29.818 45.5423C30.6742 44.9195 31.612 44.6217 32.672 44.6217C34.3573 44.6217 36.0289 44.5676 37.7142 44.5676C38.285 44.5676 38.6111 44.3509 38.7878 43.7823C39.3043 42.1713 39.8887 40.5873 40.4187 38.9898C40.7449 38.0016 41.3021 37.2299 42.1447 36.6207C43.531 35.6188 44.8764 34.5629 46.2627 33.561C46.6976 33.2361 46.8063 32.8977 46.6432 32.3832C46.0996 30.6774 45.5831 28.9581 45.0531 27.2523C44.7949 26.44 44.7949 25.6277 45.0531 24.8154C45.5831 23.1231 46.0996 21.4309 46.616 19.7251C46.6704 19.5355 46.7112 19.3731 46.7927 19.0888Z" fill="#FC5F49"/>
<path d="M40.9485 26.0208C40.9349 34.7935 33.7727 41.9145 24.9931 41.8875C16.1864 41.8739 9.0377 34.7393 9.05129 25.9937C9.07847 17.221 16.2136 10.1134 25.0067 10.127C33.827 10.1405 40.9621 17.2616 40.9485 26.0208ZM12.313 26.0072C12.313 32.9523 17.9668 38.6112 24.9252 38.6383C31.9651 38.6654 37.6596 33.0335 37.6868 25.9937C37.714 19.0621 32.0195 13.3761 25.0203 13.3626C17.9939 13.3626 12.313 19.008 12.313 26.0072Z" fill="#FC5F49"/>
<path d="M22.6148 28.308C23.8516 27.1843 25.0747 26.0607 26.2979 24.9505C28.0239 23.3801 29.7499 21.7962 31.4759 20.2257C32.468 19.3187 33.9494 19.7519 34.2348 21.0109C34.3843 21.6879 34.1125 22.2158 33.6096 22.6761C31.6526 24.4496 29.7091 26.2367 27.7521 28.0237C26.4202 29.2421 25.0747 30.4741 23.7292 31.6925C22.8051 32.5319 21.8809 32.4778 21.0519 31.5165C19.4618 29.6889 17.8717 27.8612 16.2816 26.0336C15.5341 25.1672 15.5341 24.2195 16.2816 23.5697C17.029 22.9063 18.0076 23.0552 18.7687 23.9352C19.951 25.289 21.1334 26.6428 22.3022 27.9966C22.3974 28.0914 22.4925 28.1862 22.6148 28.308Z" fill="#FC5F49"/>
</g>
<defs>
<clipPath id="clip0_395_2389">
<rect width="50" height="52" fill="white"/>
</clipPath>
</defs>
</svg>
