<svg width="52" height="52" viewBox="0 0 52 52" fill="none" xmlns="http://www.w3.org/2000/svg">
<g clip-path="url(#clip0_395_2397)">
<path d="M52 49.0547C52 49.6641 52 50.2734 52 50.8828C51.7562 51.3805 51.3805 51.7562 50.8828 52C34.2977 52 17.7023 52 1.11719 52C0.619531 51.7562 0.24375 51.3906 0 50.8828C0 50.2734 0 49.6641 0 49.0547C0.0203125 49.0141 0.0609375 48.9734 0.0710937 48.9227C0.416406 47.1859 1.45234 46.0586 3.07734 45.3781C7.17031 43.6617 11.2531 41.8945 15.3461 40.168C15.6406 40.0461 15.7523 39.9039 15.7523 39.5789C15.732 38.7664 15.7625 37.9539 15.732 37.1414C15.7219 36.9078 15.6203 36.6641 15.5086 36.4508C14.9805 35.4555 14.3609 34.5008 13.9141 33.4648C13.5484 32.6219 13.3859 31.6977 13.1219 30.7734C12.2891 30.7734 11.4258 30.7836 10.5625 30.7734C8.01328 30.743 6.0125 28.7727 5.99219 26.2336C5.97188 24.0297 5.97188 21.8359 5.99219 19.632C6.00234 17.4992 7.43437 15.7219 9.50625 15.2141C9.64844 15.1836 9.79063 15.1328 9.84141 15.1125C10.0242 13.7922 10.1359 12.5227 10.3695 11.2836C11.4867 5.45391 15.2953 1.625 21.0742 0.4875C22.1609 0.284375 23.2781 0.1625 24.375 0C25.4617 0 26.5383 0 27.625 0C28.407 0.101562 29.1992 0.192969 29.9813 0.304688C36.1461 1.17813 40.2188 4.91562 41.5492 10.9891C41.8438 12.3398 41.9656 13.7211 42.1688 15.1328C42.1688 15.1328 42.2297 15.1633 42.2906 15.1734C44.7586 15.8336 45.9977 17.4586 46.0078 19.9977C46.0078 21.9578 46.0078 23.9281 46.0078 25.8883C46.0078 28.8742 44.0984 30.7836 41.1328 30.7836C40.3609 30.7836 39.5891 30.7836 38.7969 30.7836C38.5633 32.3781 38.218 33.9219 37.2938 35.1609C36.3289 36.4609 36.1359 37.832 36.2578 39.3352C36.268 39.4367 36.2781 39.5383 36.2578 39.6398C36.207 39.9344 36.3594 40.0562 36.6133 40.1578C37.3141 40.4422 38.0148 40.7469 38.7156 41.0516C42.1484 42.5141 45.5812 43.9766 49.0242 45.4289C50.5781 46.0891 51.5836 47.2062 51.9188 48.8922C51.9289 48.9328 51.9695 48.9938 52 49.0547ZM35.1203 32.7539C34.1758 33.1703 33.2313 33.6781 32.2359 34.0133C30.55 34.5719 28.7828 34.3484 27.0461 34.3281C26.8023 34.3281 26.5281 34.1656 26.325 34.0031C25.8172 33.6273 25.6445 32.9469 25.8477 32.3578C26.0609 31.7383 26.5992 31.3422 27.3203 31.3219C28.1328 31.3016 28.9453 31.3117 29.7578 31.3219C30.9766 31.332 32.0836 30.9867 33.0992 30.2961C33.8812 29.768 34.6633 29.2297 35.4656 28.7219C35.75 28.5391 35.8617 28.3359 35.8617 27.9906C35.8516 24.6187 35.8312 21.257 35.8617 17.8852C35.8719 15.9859 35.2219 14.3 34.2672 12.7258C33.5156 11.4766 32.6422 11.1617 31.2406 11.5578C30.225 11.8523 29.2297 12.2383 28.2344 12.6242C26.7516 13.2031 25.2789 13.2133 23.7859 12.6445C22.7297 12.2383 21.6633 11.8625 20.5766 11.5375C19.5711 11.2328 18.6164 11.3648 17.9258 12.2688C16.8594 13.6703 16.2297 15.3055 16.1789 17.0016C16.057 21.125 16.1281 25.2586 16.1484 29.382C16.1586 31.2914 16.7477 33.0484 17.9055 34.582C19.7437 37.0195 22.2523 38.2383 25.2586 38.4211C28.5391 38.6242 31.393 37.6289 33.6375 35.1305C34.2977 34.4297 34.8055 33.607 35.1203 32.7539ZM39.0711 15.0312C38.9492 14.0562 38.868 13.0813 38.6852 12.1266C37.8625 7.6375 35.3234 4.69219 30.8242 3.59531C28.1125 2.93516 25.3602 2.89453 22.6078 3.31094C20.5258 3.62578 18.5656 4.28594 16.9 5.62656C14.8078 7.30234 13.782 9.57734 13.3148 12.1367C13.132 13.1117 13.0609 14.0969 12.9289 15.082C13.0102 15.1125 13.0914 15.1531 13.1727 15.1836C13.2844 15.0312 13.457 14.8992 13.5078 14.7367C13.9344 13.3047 14.432 11.9133 15.3258 10.6945C16.7273 8.78516 18.6164 8.01328 20.9219 8.54141C22.2523 8.84609 23.532 9.34375 24.8117 9.81094C25.5938 10.0953 26.3453 10.1359 27.1273 9.82109C27.9094 9.49609 28.7016 9.21172 29.4937 8.92734C30.7227 8.49063 31.9719 8.21641 33.2719 8.49062C34.9172 8.83594 36.1258 9.83125 36.918 11.2531C37.5273 12.35 37.9437 13.5586 38.4312 14.7266C38.543 14.9602 38.5938 15.2039 39.0711 15.0312ZM33.1906 39.5688C28.3867 42.1891 23.6133 42.1992 18.8094 39.5688C18.6977 41.6203 18.8398 43.6008 19.7641 45.4594C20.6172 47.1859 21.9781 48.3133 23.8672 48.7094C24.7711 48.8922 25.7156 48.9734 26.6297 48.9328C29.1992 48.8109 31.2 47.7141 32.3172 45.2867C33.1602 43.4688 33.3023 41.5492 33.1906 39.5688ZM33.5664 48.9125C38.6648 48.9125 43.6617 48.9125 48.6586 48.9125C48.6789 48.8719 48.6992 48.8211 48.7195 48.7805C48.4047 48.5875 48.1 48.3438 47.7648 48.2016C44.332 46.7289 40.8992 45.2664 37.4664 43.8039C37.0195 43.6109 36.5727 43.4383 36.0953 43.2352C35.7195 45.3578 34.9883 47.257 33.5664 48.9125ZM15.9148 43.2961C15.8336 43.2859 15.8234 43.2758 15.8031 43.2859C11.8523 44.9617 7.91172 46.6375 3.97109 48.3234C3.71719 48.4352 3.51406 48.6586 3.29063 48.8312C3.31094 48.8617 3.34141 48.8922 3.36172 48.9227C8.35859 48.9227 13.3555 48.9227 18.4336 48.9227C17.0117 47.257 16.2805 45.3578 15.9148 43.2961ZM13.0813 18.1695C12.1367 18.1695 11.243 18.1391 10.3492 18.1797C9.61797 18.2203 9.03906 18.8602 9.03906 19.6219C9.01875 21.8359 9.02891 24.05 9.03906 26.2742C9.03906 26.9648 9.52656 27.625 10.1969 27.6859C11.1414 27.7672 12.1062 27.7062 13.0813 27.7062C13.0813 24.5172 13.0813 21.3789 13.0813 18.1695ZM38.9188 27.7266C39.8531 27.7266 40.7469 27.7672 41.6406 27.7164C42.3719 27.6758 42.9508 27.0258 42.9508 26.2742C42.9711 24.0602 42.9711 21.8461 42.9508 19.6219C42.9508 18.9211 42.4531 18.2609 41.793 18.2102C40.8484 18.1391 39.8836 18.1898 38.9086 18.1898C38.9188 21.3687 38.9188 24.5172 38.9188 27.7266Z" fill="#FC5F49"/>
</g>
<defs>
<clipPath id="clip0_395_2397">
<rect width="52" height="52" fill="white"/>
</clipPath>
</defs>
</svg>
