<svg width="59" height="52" viewBox="0 0 59 52" fill="none" xmlns="http://www.w3.org/2000/svg">
<g clip-path="url(#clip0_395_2426)">
<path d="M0 15.0355C0.20166 14.1147 0.460938 13.2226 1.05151 12.46C2.20386 10.9636 3.75952 10.3449 5.61768 10.3593C8.67139 10.3737 11.7251 10.3737 14.7788 10.3593C15.1533 10.3593 15.5422 10.3017 15.9023 10.1866C22.0242 8.15784 28.1316 6.12906 34.239 4.10028C34.6711 3.9564 34.916 3.75496 35.0889 3.29453C35.9243 0.992368 38.301 -0.302596 40.8794 0.0858934C43.04 0.416829 44.8982 2.44561 45.0566 4.67582C45.0999 5.19381 45.1143 5.71179 45.1143 6.22978C45.1143 16.1147 45.1143 25.9852 45.1143 35.8701C45.1143 37.6974 44.5813 39.2514 43.1265 40.4312C40.4473 42.6039 36.2556 41.4816 35.0745 38.2442C34.916 37.8269 34.6855 37.6111 34.2678 37.4816C31.1853 36.4744 28.1172 35.4384 25.0491 34.4168C24.833 34.3449 24.6169 34.2873 24.3 34.1866C24.3 34.8773 24.3145 35.5103 24.3 36.1578C24.2712 37.942 23.6375 39.4384 22.1826 40.5463C21.1599 41.3233 19.9788 41.5967 18.7256 41.5967C18.1206 41.5967 17.5156 41.5967 16.853 41.5967C17.0115 43.2657 17.1987 44.8485 17.314 46.4312C17.458 48.3593 16.709 49.942 15.1245 51.0355C13.4536 52.1866 11.6387 52.3593 9.79492 51.4096C7.86475 50.4168 7.11572 48.7478 6.91406 46.647C6.43872 41.5535 5.84814 36.46 5.30078 31.3809C5.30078 31.3521 5.27197 31.3089 5.28638 31.3521C4.45093 31.1075 3.62988 30.9636 2.89526 30.6183C1.29639 29.8125 0.374512 28.5032 0.0864258 26.7621C0.0720215 26.6902 0.0288086 26.6183 0 26.5463C0 22.7046 0 18.8773 0 15.0355ZM34.6711 7.61107C34.4263 7.68302 34.239 7.72618 34.0662 7.78373C28.6934 9.56791 23.335 11.3665 17.9766 13.1363C17.53 13.2801 17.3572 13.4672 17.3572 13.9564C17.386 18.5032 17.3716 23.0499 17.3572 27.5967C17.3572 28.0715 17.5156 28.2442 17.9478 28.3881C21.9521 29.6974 25.9421 31.0499 29.9465 32.3737C31.5022 32.8916 33.0723 33.4096 34.6711 33.942C34.6711 25.1506 34.6711 16.4168 34.6711 7.61107ZM13.8425 27.6974C13.8425 23.0499 13.8425 18.4744 13.8425 13.8988C13.7561 13.8701 13.6985 13.8413 13.6553 13.8413C10.8176 13.8413 7.97998 13.8269 5.12793 13.8557C4.13403 13.8701 3.47144 14.6039 3.47144 15.6255C3.45703 19.0355 3.45703 22.4456 3.47144 25.8701C3.47144 26.9924 4.20605 27.683 5.32959 27.6974C6.20825 27.7118 7.10132 27.6974 7.97998 27.6974C9.91016 27.6974 11.8547 27.6974 13.8425 27.6974ZM41.6428 20.7765C41.6428 15.755 41.6428 10.7334 41.6428 5.6974C41.6428 5.4528 41.6428 5.19381 41.614 4.9492C41.542 4.24417 41.0667 3.6974 40.3896 3.51035C39.1365 3.16503 38.1714 4.04273 38.1714 5.53913C38.1714 15.683 38.1714 25.8269 38.1714 35.9708C38.1714 36.2586 38.1858 36.5463 38.2578 36.8197C38.4451 37.5535 39.0933 38.0571 39.8567 38.0715C40.6345 38.0859 41.3547 37.6111 41.5564 36.8629C41.6428 36.5607 41.6428 36.2154 41.6428 35.8988C41.6428 30.8629 41.6428 25.8125 41.6428 20.7765ZM12.4021 31.2082C11.1489 31.2082 9.96777 31.2082 8.77222 31.2082C8.81543 31.6974 8.85864 32.1291 8.90186 32.5751C9.3916 37.165 9.88135 41.755 10.3711 46.3449C10.4143 46.719 10.4431 47.1219 10.5728 47.4672C10.8464 48.2298 11.6963 48.647 12.4885 48.4744C13.396 48.2729 13.929 47.5391 13.8425 46.5607C13.5256 43.0643 13.1943 39.5823 12.863 36.1003C12.719 34.46 12.5605 32.8485 12.4021 31.2082ZM16.5361 38.1003C17.0403 38.1003 17.4292 38.1003 17.8325 38.1003C18.2358 38.1003 18.6392 38.1147 19.0425 38.1003C20.094 38.0571 20.7854 37.424 20.8142 36.3737C20.8574 35.3665 20.843 34.3449 20.8142 33.3233C20.8142 33.1794 20.6702 32.9636 20.5405 32.9204C19.0281 32.4024 17.5012 31.8988 15.9023 31.3665C16.1184 33.6398 16.3345 35.8701 16.5361 38.1003Z" fill="#FC5F49"/>
<path d="M57.185 31.1946C56.9402 31.1227 56.6377 31.0507 56.3784 30.9212C54.1313 29.8133 51.8842 28.691 49.6372 27.5687C48.7729 27.1371 48.4128 26.3025 48.6721 25.468C48.9026 24.691 49.6804 24.173 50.487 24.2594C50.7463 24.2882 51.0056 24.3745 51.2505 24.504C53.4831 25.6119 55.7014 26.7198 57.9341 27.8421C58.6543 28.2018 59.0576 28.7774 59 29.5975C58.9424 30.3313 58.539 30.8349 57.8332 31.0795C57.6316 31.1227 57.4443 31.1371 57.185 31.1946Z" fill="#FC5F49"/>
<path d="M48.6001 12.1004C48.6001 11.3954 48.917 10.8774 49.5364 10.5608C51.8555 9.38098 54.189 8.21551 56.5225 7.07882C57.4155 6.64717 58.395 7.02127 58.8127 7.87019C59.2161 8.70472 58.9424 9.69753 58.0637 10.1436C55.7302 11.3378 53.3823 12.5177 51.02 13.6544C49.8677 14.2155 48.6001 13.3666 48.6001 12.1004Z" fill="#FC5F49"/>
<path d="M53.7856 17.3091C54.8947 17.3091 56.0183 17.2947 57.1274 17.3091C58.2509 17.3235 59.0144 18.0429 59 19.0501C58.9856 20.0286 58.2221 20.7624 57.1418 20.7624C54.9235 20.7768 52.6909 20.7768 50.4726 20.7624C49.3491 20.7624 48.6001 20.0286 48.6145 19.007C48.6289 18.0142 49.3491 17.3235 50.4582 17.3091C51.5673 17.2947 52.6765 17.3091 53.7856 17.3091Z" fill="#FC5F49"/>
</g>
<defs>
<clipPath id="clip0_395_2426">
<rect width="59" height="52" fill="white"/>
</clipPath>
</defs>
</svg>
