<svg width="76" height="52" viewBox="0 0 76 52" fill="none" xmlns="http://www.w3.org/2000/svg">
<g clip-path="url(#clip0_395_2410)">
<path d="M0 22.3949C0.475 21.3678 1.28646 21.0254 2.39479 21.0254C11.8948 21.0455 21.375 21.0455 30.875 21.0455C31.1125 21.0455 31.3698 21.0254 31.6073 21.0657C32.5771 21.1865 33.2698 21.9921 33.25 22.9789C33.2302 23.9255 32.5375 24.6908 31.6073 24.8116C31.3698 24.8317 31.1125 24.8317 30.875 24.8317C21.375 24.8317 11.8948 24.8116 2.39479 24.8519C1.28646 24.8519 0.475 24.5095 0 23.4824C0 23.0998 0 22.7372 0 22.3949Z" fill="#FC5F49"/>
<path d="M53.9916 4.1288C55.7332 4.1288 57.3957 4.1288 59.0385 4.1288C62.6405 4.1288 65.1343 5.90107 66.3812 9.34491C67.5093 12.4262 68.5978 15.5277 69.7655 18.609C69.9832 19.1931 70.3791 19.7771 70.8145 20.2202C72.1603 21.5695 73.5457 22.8585 74.9312 24.1272C75.6635 24.7919 75.9999 25.5773 75.9999 26.5843C75.9801 32.042 75.9999 37.4998 75.9801 42.9777C75.9801 44.8306 75.0103 45.8174 73.1895 45.8174C71.7051 45.8174 70.2207 45.8174 68.7364 45.8174C68.3801 45.8174 68.1822 45.898 68.0437 46.3008C66.7968 49.9057 63.8874 52.0405 60.3249 52.0204C56.8416 52.0002 53.9718 49.7849 52.7645 46.2001C52.7249 46.0792 52.6655 45.9785 52.626 45.8577C48.4499 45.8577 44.3135 45.8577 40.1572 45.8577C38.9499 49.5432 36.5551 51.819 32.6957 51.9599C28.4999 52.121 25.8676 49.805 24.5218 45.8174C22.5426 45.8174 20.5635 45.8174 18.5843 45.8174C17.278 45.8174 16.427 45.0723 16.4468 43.9444C16.4468 42.8368 17.3176 42.0513 18.5843 42.0513C20.5635 42.0513 22.5426 42.0513 24.5416 42.0513C25.0364 40.1582 25.9864 38.5874 27.4905 37.4193C31.8843 33.9956 38.1978 35.9894 39.9395 41.3465C40.1176 41.9104 40.3551 42.0513 40.9093 42.0513C44.5707 42.0312 48.2322 42.0312 51.8937 42.0312C52.1114 42.0312 52.3291 42.0312 52.6062 42.0312C53.0218 40.561 53.6551 39.252 54.7041 38.1846C58.9395 33.8345 66.0843 35.4859 67.9843 41.3062C68.1822 41.8902 68.4395 42.0715 69.0135 42.0513C70.0624 41.9909 71.1312 42.0312 72.2593 42.0312C72.2593 41.709 72.2593 41.4673 72.2593 41.2256C72.2593 36.654 72.2593 32.0622 72.2791 27.4905C72.2791 26.9669 72.1207 26.6044 71.7249 26.262C70.5572 25.2148 69.4291 24.1272 68.2416 23.1001C67.9645 22.8585 67.5489 22.6973 67.1926 22.6973C62.5218 22.6772 57.851 22.6772 53.1603 22.6772C51.1812 22.6772 50.251 21.7307 50.251 19.7167C50.251 14.7423 50.251 9.7477 50.251 4.77326C50.251 4.47117 50.251 4.18922 50.251 3.80657C49.8947 3.80657 49.5978 3.80657 49.301 3.80657C39.1874 3.80657 29.0739 3.80657 18.9603 3.80657C18.6437 3.80657 18.3072 3.82671 17.9905 3.76629C17.0405 3.60517 16.3874 2.77946 16.427 1.85304C16.4666 0.92663 17.1791 0.141192 18.1093 0.0404949C18.4062 0.000216088 18.703 0.0203555 18.9999 0.0203555C29.628 0.0203555 40.177 0.0606344 50.7458 0.000216089C53.1801 -0.0199233 54.1895 1.3697 54.0114 3.32322C53.9916 3.56489 53.9916 3.78643 53.9916 4.1288ZM54.051 7.89487C54.051 11.6005 54.051 15.2256 54.051 18.8507C58.0291 18.8507 61.928 18.8507 65.926 18.8507C64.8374 15.8701 63.7885 12.9297 62.6801 10.0498C62.1655 8.72059 61.077 7.97543 59.6916 7.91501C57.8312 7.85459 55.9708 7.89487 54.051 7.89487ZM36.6739 43.9042C36.6937 41.4874 34.7937 39.5138 32.4385 39.4735C30.103 39.4332 28.1239 41.4069 28.0843 43.8035C28.0447 46.2001 29.9843 48.1939 32.3395 48.214C34.7145 48.2341 36.6541 46.3209 36.6739 43.9042ZM64.7385 43.8437C64.7385 41.4472 62.7989 39.4735 60.4437 39.4735C58.0885 39.4936 56.1489 41.4874 56.1489 43.8639C56.1687 46.2605 58.1082 48.2341 60.4635 48.214C62.8385 48.214 64.7187 46.2806 64.7385 43.8437Z" fill="#FC5F49"/>
<path d="M20.8604 14.339C17.476 14.339 14.0916 14.339 10.6875 14.339C9.34162 14.339 8.53016 13.5536 8.56974 12.3653C8.60933 11.4389 9.28224 10.6938 10.1927 10.6132C10.4302 10.5931 10.6875 10.5931 10.925 10.5931C17.575 10.5931 24.225 10.5931 30.8947 10.5931C31.2114 10.5931 31.5479 10.5729 31.8645 10.6535C32.6364 10.8146 33.2302 11.5799 33.25 12.4056C33.2697 13.2515 32.775 14.0168 31.9833 14.2383C31.627 14.339 31.251 14.3591 30.875 14.3591C27.55 14.3591 24.2052 14.339 20.8604 14.339Z" fill="#FC5F49"/>
<path d="M13.2407 35.2637C11.123 35.2637 8.9855 35.2838 6.86779 35.2637C5.62091 35.2435 4.84904 34.2768 5.02716 33.0685C5.16571 32.1421 5.91779 31.5379 7.00633 31.5177C8.53029 31.4976 10.074 31.5177 11.598 31.5177C14.1907 31.5177 16.7834 31.5177 19.3761 31.5177C20.6032 31.5177 21.3751 32.1622 21.4938 33.1893C21.6126 34.3574 20.8209 35.2637 19.5938 35.2838C17.4959 35.2838 15.3782 35.2637 13.2407 35.2637Z" fill="#FC5F49"/>
</g>
<defs>
<clipPath id="clip0_395_2410">
<rect width="76" height="52" fill="white"/>
</clipPath>
</defs>
</svg>
