<svg width="21" height="16" viewBox="0 0 21 16" fill="none" xmlns="http://www.w3.org/2000/svg">
<path d="M0.0102539 1.14031C0.0362956 1.07235 0.0571289 1.00963 0.0779622 0.941678C0.260254 0.392837 0.755046 0.0112627 1.32796 0.00603568C2.73942 0.000808628 4.15088 -0.00441842 5.56234 0.00603568C6.2863 0.0112627 6.87484 0.607146 6.88004 1.33371C6.89046 2.74501 6.89046 4.15631 6.88004 5.56762C6.87484 6.30463 6.28109 6.89529 5.5415 6.90051C4.15088 6.90574 2.75505 6.90574 1.36442 6.90051C0.734212 6.90051 0.218587 6.48758 0.0519206 5.87079C0.0415039 5.8342 0.0258789 5.79761 0.0102539 5.76624C0.0102539 4.22427 0.0102539 2.68229 0.0102539 1.14031ZM3.44255 5.65125C4.09359 5.65125 4.74463 5.64602 5.39567 5.65648C5.56755 5.65648 5.63525 5.60943 5.63525 5.42649C5.63005 4.1145 5.63005 2.80251 5.63525 1.48529C5.63525 1.3128 5.58317 1.2553 5.4113 1.26053C4.104 1.26575 2.79671 1.26575 1.48421 1.26053C1.30192 1.26053 1.25505 1.32848 1.25505 1.50097C1.26025 2.80773 1.26025 4.1145 1.25505 5.42126C1.25505 5.59898 1.30713 5.6617 1.48942 5.65648C2.14046 5.64602 2.7915 5.65125 3.44255 5.65125Z" fill="#5E5E5E"/>
<path d="M0.0104167 10.236C0.0364583 10.1681 0.0572917 10.1053 0.078125 10.0374C0.260417 9.48854 0.755208 9.10697 1.32292 9.10174C2.73438 9.09651 4.14583 9.09128 5.55729 9.10174C6.28125 9.10697 6.86979 9.70285 6.875 10.4294C6.88542 11.8407 6.88542 13.252 6.875 14.6633C6.86979 15.4003 6.27604 15.991 5.53646 15.9962C4.13542 16.0014 2.73958 16.0014 1.33854 15.9962C0.744792 15.991 0.234375 15.5937 0.0572917 15.024C0.0416667 14.9665 0.0208333 14.9142 0 14.8619C0.0104167 13.32 0.0104167 11.778 0.0104167 10.236ZM5.63542 12.5307C5.63542 11.8825 5.63021 11.2396 5.64062 10.5914C5.64062 10.419 5.59896 10.3458 5.41146 10.351C4.10417 10.3562 2.79688 10.3562 1.48438 10.351C1.31771 10.351 1.25521 10.4033 1.26042 10.5758C1.26562 11.8878 1.26562 13.1997 1.26042 14.517C1.26042 14.6999 1.32292 14.7522 1.5 14.747C2.80208 14.7417 4.10417 14.7417 5.40625 14.747C5.58333 14.747 5.64583 14.6947 5.64062 14.5117C5.63021 13.8531 5.63542 13.1945 5.63542 12.5307Z" fill="#5E5E5E"/>
<path d="M14.3646 3.14221C12.7188 3.14221 11.0729 3.14221 9.42189 3.14221C8.94273 3.14221 8.63543 2.71359 8.8021 2.2902C8.89585 2.04976 9.07814 1.91908 9.33335 1.89295C9.39064 1.88772 9.44793 1.89295 9.51043 1.89295C12.7604 1.89295 16.0052 1.89295 19.2552 1.89295C19.3386 1.89295 19.4271 1.88772 19.5104 1.90863C19.8177 1.97135 20.0313 2.25884 20.0104 2.56724C19.9896 2.88609 19.7292 3.14221 19.4063 3.14744C18.9584 3.15789 18.5104 3.15267 18.0573 3.15267C16.8281 3.14221 15.5938 3.14221 14.3646 3.14221Z" fill="#5E5E5E"/>
<path d="M14.406 10.8259C16.0519 10.8259 17.6977 10.8259 19.3487 10.8259C19.8175 10.8259 20.1248 11.2388 19.9737 11.657C19.8852 11.9079 19.6977 12.0438 19.4321 12.0751C19.3748 12.0804 19.3175 12.0804 19.255 12.0804C16.005 12.0804 12.7602 12.0804 9.51019 12.0804C9.42686 12.0804 9.33832 12.0856 9.26019 12.0647C8.9529 12.002 8.73936 11.7145 8.76019 11.4061C8.78102 11.0872 9.04144 10.8311 9.36436 10.8259C9.85915 10.8154 10.3539 10.8206 10.8487 10.8206C12.0362 10.8259 13.2185 10.8259 14.406 10.8259Z" fill="#5E5E5E"/>
<path d="M12.6665 4.2406C13.7446 4.2406 14.828 4.2406 15.9061 4.2406C16.3905 4.2406 16.703 4.6849 16.5207 5.10829C16.4009 5.38533 16.1769 5.4951 15.88 5.4951C14.4686 5.48987 13.0571 5.4951 11.6405 5.4951C10.9269 5.4951 10.2082 5.4951 9.49463 5.4951C9.04671 5.4951 8.76025 5.2442 8.76025 4.86262C8.76546 4.48628 9.04671 4.2406 9.48421 4.2406C10.5467 4.23538 11.604 4.2406 12.6665 4.2406Z" fill="#5E5E5E"/>
<path d="M12.6875 13.3353C13.7604 13.3353 14.8333 13.3353 15.9115 13.3353C16.3958 13.3353 16.7083 13.7796 16.526 14.203C16.4062 14.4801 16.1823 14.5898 15.8854 14.5898C14.474 14.5846 13.0625 14.5898 11.6458 14.5898C10.9323 14.5898 10.2135 14.5898 9.5 14.5898C9.05208 14.5898 8.76562 14.3389 8.76562 13.9573C8.77083 13.581 9.05208 13.3353 9.48958 13.3353C10.5521 13.3301 11.6198 13.3353 12.6875 13.3353Z" fill="#5E5E5E"/>
</svg>
