<svg width="37" height="22" viewBox="0 0 37 22" fill="none" xmlns="http://www.w3.org/2000/svg">
<path fill-rule="evenodd" clip-rule="evenodd" d="M36.6215 10.84C36.6215 4.85345 31.7683 0.000209055 25.7819 0.000209055C23.1841 0.000209055 20.8203 0.909345 18.9535 2.43318C20.3775 3.80804 21.4646 5.52942 22.0479 7.47521H21.1473C20.5828 5.74529 19.5913 4.21895 18.3025 2.99413C17.0051 4.22966 16.0341 5.76745 15.4764 7.47H14.5756C15.1508 5.55988 16.2049 3.82858 17.6378 2.44069C15.7756 0.932474 13.423 0 10.8398 0C4.85345 0 0 4.85324 0 10.8398C0 16.8262 4.85324 21.6795 10.8398 21.6795C13.4228 21.6795 15.7756 20.747 17.6378 19.2388C16.2248 17.8681 15.1563 16.1444 14.5756 14.2097H15.4764C16.0342 15.9122 17.0052 17.45 18.3025 18.6855C19.5915 17.4605 20.5828 15.9344 21.1473 14.2042H22.0479C21.4646 16.15 20.3775 17.8716 18.9535 19.2463C20.8203 20.7699 23.1841 21.6792 25.7819 21.6792C31.7683 21.6795 36.6215 16.8262 36.6215 10.84Z" fill="#5E5E5E"/>
<path fill-rule="evenodd" clip-rule="evenodd" d="M28.6546 13.3792L29.4031 9.36846H30.3493L30.4483 9.76374C30.6179 9.56579 30.9428 9.36846 31.4935 9.36846L31.1972 10.4132C30.9286 10.4132 30.4201 10.343 30.0955 11.5433L29.7565 13.3792H28.6546ZM14.1507 8.34909H15.2413L15.0175 9.4118H15.6045L15.4091 10.2786H14.8498L14.542 11.9004C14.486 12.2082 14.5141 12.488 15.1434 12.3901L15.0734 13.2009C14.8356 13.3547 14.5141 13.397 14.2622 13.397C14.0107 13.397 13.1855 13.2428 13.3956 12.1523L14.1507 8.34909ZM18.8768 11.5931C19.0027 10.9496 19.2965 9.35596 17.3809 9.35596C15.6189 9.35596 15.3953 11.1036 15.3534 11.3551C15.3116 11.607 15.2836 13.3826 17.1711 13.3826C17.6326 13.3967 18.3038 13.3407 18.5697 13.2007L18.7374 12.3761C18.5697 12.4176 17.9402 12.4739 17.5066 12.4739C17.0734 12.4739 16.3743 12.502 16.4999 11.5931H18.8768ZM13.1163 10.3068L13.3679 9.49557C12.8505 9.29991 12.4452 9.342 12.2912 9.342C12.1372 9.342 10.828 9.32595 10.6273 10.2928C10.4735 11.034 10.7448 11.3405 11.0049 11.4532C11.4246 11.6352 11.6623 11.8029 11.8861 11.9148C12.1628 12.0532 12.112 12.516 11.7461 12.516C11.5781 12.516 10.8513 12.5997 10.306 12.4178L10.1522 13.2428C10.6557 13.3828 11.0607 13.3828 11.4387 13.3828C11.7042 13.3828 13.0047 13.4528 13.1861 12.2501C13.2749 11.6637 13.0184 11.397 12.8086 11.2717C12.599 11.1317 12.2493 10.9361 12.0257 10.8379C11.8019 10.7402 11.6342 10.3628 12.0397 10.2509C12.2912 10.2228 12.8084 10.2228 13.1163 10.3068ZM6.04121 13.3826L6.94993 8.54476H5.16041L3.83182 11.4812L3.62198 8.54476H1.87435L0.9375 13.3826H2.02792L2.6991 9.8871L2.9929 13.3826H4.02748L5.55174 9.97108L4.90849 13.3826H6.04121ZM7.24332 9.48182L7.07558 10.3487C7.34146 10.3209 8.05452 10.209 8.43189 10.2228C8.80967 10.2368 9.22892 10.1809 9.10306 10.7821C8.82342 10.8102 6.86595 10.5024 6.5586 12.1801C6.43274 13.0054 7.14559 13.4247 7.70487 13.397C8.26414 13.3688 8.41792 13.2988 8.61379 13.1588L8.75361 13.3826H9.77402L10.2076 11.2015C10.3195 10.6562 10.501 9.34179 8.66964 9.34179C8.33416 9.35596 7.95679 9.34179 7.24332 9.48182ZM24.9172 9.66331C24.6371 9.49536 24.4419 9.46765 24.0781 9.46765C23.7147 9.46765 22.9035 9.81501 22.7501 10.796C22.5682 11.9565 23.365 12.5295 24.4838 12.1523L24.8053 13.1311C24.4419 13.2988 24.0781 13.3826 23.4769 13.3826C22.3442 13.3826 21.114 12.3761 21.6732 10.3345C22.0856 8.83023 23.3794 8.27929 24.1343 8.30721C25.0289 8.34055 25.3508 8.64269 25.6305 8.95046L24.9172 9.66331ZM34.2155 9.83105C34.0054 9.67748 33.8802 9.35596 33.3624 9.35596C32.7612 9.35596 31.8244 9.24406 31.2932 11.0617C30.938 12.2765 31.6566 13.3828 32.4393 13.3828C32.8031 13.369 33.1665 13.215 33.3899 13.0613L33.5303 13.3828H34.7045L35.6555 8.29346H34.5087L34.2155 9.83105ZM25.7003 9.48182L25.5321 10.3487C25.7982 10.3209 26.5108 10.209 26.8886 10.2228C27.2662 10.2368 27.6859 10.1809 27.5598 10.7821C27.2802 10.8102 25.3227 10.5024 25.0153 12.1801C24.8893 13.0054 25.6021 13.4247 26.1614 13.397C26.7211 13.3688 26.8745 13.2988 27.0705 13.1588L27.2106 13.3826H28.2308L28.6646 11.2015C28.7765 10.6562 28.958 9.34179 27.1262 9.34179C26.7909 9.35596 26.4133 9.34179 25.7003 9.48182Z" fill="white"/>
<path fill-rule="evenodd" clip-rule="evenodd" d="M16.5698 10.8652H17.9261C17.9961 10.4736 17.8702 10.1379 17.4368 10.1379C17.0032 10.1379 16.6956 10.3617 16.5698 10.8652ZM8.92159 11.5922C8.73968 11.5636 8.33418 11.4522 7.98453 11.6899C7.63488 11.9277 7.53715 12.3467 7.90077 12.4871C8.25063 12.6216 8.76719 12.3894 8.83762 12.0252L8.92159 11.5922ZM33.824 11.4661C33.9359 11.1027 33.8748 10.6489 33.7539 10.4878C33.4187 10.0404 32.6471 10.394 32.4118 11.2709C32.258 11.8439 32.5937 12.2773 32.9711 12.2773C33.3768 12.2771 33.6283 11.9556 33.824 11.4661ZM27.3783 11.5922C27.1964 11.5636 26.7911 11.4522 26.4415 11.6899C26.0918 11.9277 25.9939 12.3467 26.3577 12.4871C26.7078 12.6216 27.2241 12.3894 27.2941 12.0252L27.3783 11.5922Z" fill="#5E5E5E"/>
<path fill-rule="evenodd" clip-rule="evenodd" d="M18.9082 13.3824L19.6494 9.41162H20.5862L20.684 9.80316C20.8521 9.60728 21.1736 9.41162 21.7185 9.41162L21.4389 10.4604C21.1736 10.4604 20.6558 10.3766 20.3343 11.5645L19.999 13.3826L18.9082 13.3824Z" fill="white"/>
</svg>
