<svg width="40" height="46" viewBox="0 0 40 46" fill="none" xmlns="http://www.w3.org/2000/svg">
<g clip-path="url(#clip0_395_4429)">
<path d="M20.9026 0C22.0299 0.204869 23.1709 0.341449 24.271 0.628266C26.9603 1.33848 29.2693 2.75891 31.2116 4.76663C33.3033 6.92458 34.6887 9.49228 35.2999 12.4561C35.5172 13.5214 35.5987 14.614 35.7345 15.693C36.2642 15.8705 36.8754 16.0071 37.4187 16.2666C39.103 17.0724 39.9451 18.5202 39.9722 20.323C40.0266 23.56 40.0401 26.7969 39.9179 30.0202C39.8364 32.1918 38.3288 33.7352 36.2099 34.1586C35.7889 34.2405 35.6395 34.3907 35.6123 34.8278C35.5308 36.3438 35.2592 37.8325 34.6072 39.212C33.6157 41.3153 31.9043 42.5719 29.704 43.0909C28.2235 43.446 26.6887 43.5962 25.0996 43.8557C25.0996 43.924 25.1131 44.1015 25.0996 44.2791C25.0452 45.2625 24.3525 45.9727 23.3746 45.9863C21.541 46 19.7074 46 17.8873 45.9863C16.9094 45.9727 16.1895 45.2761 16.1624 44.2928C16.1352 43.3094 16.1352 42.3124 16.1624 41.329C16.1895 40.4139 16.8279 39.7173 17.7379 39.69C19.653 39.6491 21.5817 39.6491 23.4968 39.69C24.3525 39.7037 24.9366 40.332 25.0588 41.2061C25.086 41.4382 25.0996 41.6841 25.1131 41.9709C26.4714 41.9163 27.816 41.8207 29.1199 41.4519C30.0571 41.1924 30.9535 40.8236 31.7006 40.1817C33.0045 39.0891 33.5206 37.5867 33.7515 35.9751C33.833 35.4424 33.8602 34.9097 33.9145 34.3224C33.3848 34.3224 32.8958 34.3224 32.4069 34.3224C31.7413 34.3088 31.4289 34.0083 31.3882 33.3391C31.3746 33.2025 31.3882 33.0659 31.3882 32.9293C31.3882 27.6437 31.3882 22.3581 31.3882 17.0724C31.3882 16.9222 31.3882 16.772 31.3882 16.6217C31.4289 15.9935 31.7277 15.7067 32.3525 15.6793C32.8279 15.6657 33.3033 15.6657 33.7787 15.6657C33.8058 15.6657 33.833 15.6384 33.9145 15.5974C33.7515 10.7078 31.7821 6.71972 27.6666 4.05641C22.6683 0.819477 17.4527 0.792161 12.4137 4.01544C8.25745 6.67874 6.26085 10.6805 6.08428 15.693C6.60041 15.693 7.06221 15.693 7.51042 15.693C8.2982 15.7067 8.61059 15.9935 8.61059 16.772C8.61059 22.2761 8.61059 27.7939 8.61059 33.2981C8.61059 34.022 8.28462 34.3634 7.57834 34.3498C6.27443 34.3088 4.95694 34.3498 3.66662 34.1312C1.67002 33.7898 0.311782 32.1781 0.0808824 30.1295C0.026553 29.6514 -0.000611646 29.1734 -0.000611646 28.6954C-0.014194 26.1686 -0.0413587 23.6283 0.0129707 21.1015C0.026553 20.2821 0.148794 19.4216 0.420441 18.6431C0.977317 17.0315 2.25406 16.1983 3.85677 15.8296C4.01976 15.7886 4.16917 15.7613 4.20991 15.6793C4.46798 14.2589 4.61739 12.8112 4.98411 11.4181C5.69039 8.68646 7.13012 6.37827 9.14031 4.42518C11.2456 2.37648 13.7311 1.038 16.5834 0.396081C17.412 0.218527 18.2541 0.13658 19.0826 0.013658C19.7074 0 20.305 0 20.9026 0ZM6.84489 32.6425C6.84489 27.4798 6.84489 22.44 6.84489 17.3046C5.94845 17.3593 5.05202 17.3319 4.20991 17.4685C2.78377 17.7144 1.94166 18.6568 1.77868 20.1182C1.69718 20.8694 1.71076 21.6342 1.71076 22.399C1.69718 24.6116 1.69718 26.8242 1.71076 29.0368C1.72435 30.8943 2.47137 32.0416 4.00618 32.383C4.9162 32.6015 5.88054 32.5742 6.84489 32.6425ZM33.1675 17.4412C33.1675 22.5083 33.1675 27.5481 33.1675 32.5879C33.8738 32.5879 34.5393 32.6425 35.2048 32.5742C37.1471 32.4103 38.1929 31.2904 38.2337 29.3236C38.288 26.7833 38.288 24.2292 38.3016 21.6888C38.3016 21.3201 38.3152 20.9376 38.288 20.5689C38.1522 18.6704 37.1199 17.5914 35.2456 17.4549C34.5664 17.4002 33.8873 17.4412 33.1675 17.4412ZM17.8873 44.2245C19.7074 44.2245 21.5002 44.2245 23.3203 44.2245C23.3203 43.2821 23.3203 42.367 23.3203 41.4246C21.5002 41.4246 19.7074 41.4246 17.8873 41.4246C17.8873 42.367 17.8873 43.2684 17.8873 44.2245Z" fill="#191919"/>
</g>
<defs>
<clipPath id="clip0_395_4429">
<rect width="40" height="46" fill="white"/>
</clipPath>
</defs>
</svg>
