<svg width="66" height="17" viewBox="0 0 66 17" fill="none" xmlns="http://www.w3.org/2000/svg">
<g clip-path="url(#clip0_395_1350)">
<path d="M24.6838 4.18872H21.0328C20.9119 4.18865 20.795 4.23038 20.7031 4.30639C20.6112 4.3824 20.5504 4.48769 20.5315 4.6033L19.0549 13.6688C19.0481 13.7109 19.0508 13.7539 19.0629 13.7948C19.0749 13.8358 19.0959 13.8737 19.1245 13.9061C19.1531 13.9384 19.1887 13.9643 19.2286 13.9821C19.2686 13.9999 19.312 14.009 19.356 14.009H21.099C21.2199 14.009 21.3369 13.9672 21.4288 13.8911C21.5208 13.815 21.5816 13.7096 21.6003 13.5939L21.9985 11.1488C22.0172 11.0331 22.078 10.9278 22.1698 10.8517C22.2616 10.7756 22.3784 10.7337 22.4993 10.7337H23.655C26.06 10.7337 27.448 9.60673 27.8105 7.37356C27.9738 6.39656 27.8174 5.62891 27.345 5.09129C26.8261 4.50095 25.9057 4.18872 24.6838 4.18872ZM25.105 7.4997C24.9053 8.76826 23.9043 8.76826 22.9365 8.76826H22.3856L22.7721 6.39914C22.7834 6.32983 22.8199 6.2667 22.875 6.22112C22.9301 6.17554 23.0002 6.15049 23.0726 6.15049H23.3251C23.9844 6.15049 24.6064 6.15049 24.9277 6.51442C25.1194 6.73153 25.1781 7.0541 25.105 7.4997ZM35.5971 7.45886H33.8488C33.7763 7.45886 33.7062 7.48391 33.6511 7.52949C33.596 7.57507 33.5595 7.63819 33.5482 7.70751L33.4708 8.18102L33.3486 8.0094C32.9701 7.47747 32.1261 7.29964 31.2837 7.29964C29.3517 7.29964 27.7016 8.71657 27.3802 10.7042C27.2131 11.6957 27.4507 12.6437 28.0315 13.3049C28.5643 13.9128 29.3266 14.1661 30.2336 14.1661C31.7903 14.1661 32.6535 13.1969 32.6535 13.1969L32.5756 13.6673C32.5686 13.7093 32.5712 13.7523 32.583 13.7933C32.5949 13.8344 32.6158 13.8724 32.6444 13.9048C32.6729 13.9372 32.7083 13.9633 32.7482 13.9812C32.7881 13.9991 32.8316 14.0084 32.8756 14.0084H34.4504C34.5714 14.0085 34.6883 13.9667 34.7803 13.8906C34.8722 13.8145 34.933 13.709 34.9517 13.5933L35.8966 7.799C35.9035 7.75704 35.901 7.71411 35.8892 7.67319C35.8773 7.63227 35.8564 7.59432 35.8279 7.56198C35.7995 7.52964 35.7641 7.50367 35.7242 7.48586C35.6844 7.46806 35.641 7.45885 35.5971 7.45886ZM33.1601 10.7538C32.9914 11.721 32.1987 12.3703 31.1876 12.3703C30.6799 12.3703 30.2742 12.2126 30.0136 11.9138C29.7553 11.6171 29.657 11.1948 29.7393 10.7243C29.8967 9.76543 30.7028 9.09496 31.6985 9.09496C32.1949 9.09496 32.5985 9.2547 32.8644 9.55607C33.1308 9.86055 33.2365 10.2855 33.1601 10.7538ZM44.9084 7.45886H43.1515C43.0687 7.45899 42.9871 7.47869 42.9139 7.51625C42.8407 7.55381 42.778 7.60811 42.7314 7.67442L40.3083 11.1307L39.2812 7.80934C39.2496 7.70804 39.1853 7.61926 39.0976 7.55614C39.0099 7.49302 38.9036 7.45891 38.7943 7.45886H37.0678C37.0194 7.45873 36.9716 7.46982 36.9284 7.49119C36.8853 7.51257 36.8481 7.54361 36.8198 7.58174C36.7916 7.61987 36.7731 7.66398 36.766 7.7104C36.7589 7.75682 36.7634 7.80421 36.779 7.84863L38.7142 13.3478L36.8949 15.8348C36.8625 15.8789 36.8434 15.9307 36.8394 15.9847C36.8355 16.0386 36.847 16.0926 36.8727 16.1406C36.8983 16.1887 36.9371 16.229 36.9848 16.2571C37.0325 16.2852 37.0873 16.3 37.1431 16.3H38.8979C38.9798 16.3001 39.0605 16.281 39.1331 16.2443C39.2058 16.2075 39.2681 16.1543 39.3148 16.0891L45.1582 7.92152C45.1899 7.87733 45.2085 7.82559 45.212 7.7719C45.2154 7.71822 45.2036 7.66464 45.1779 7.61698C45.1522 7.56931 45.1134 7.52938 45.0659 7.50151C45.0184 7.47363 44.9639 7.45888 44.9084 7.45886Z" fill="#5E5E5E"/>
<path d="M50.7254 4.18875H47.0739C46.9531 4.1888 46.8363 4.23058 46.7445 4.30658C46.6527 4.38258 46.5919 4.48781 46.5731 4.60333L45.0965 13.6688C45.0896 13.7108 45.0923 13.7538 45.1042 13.7947C45.1161 13.8356 45.137 13.8735 45.1656 13.9059C45.1941 13.9382 45.2295 13.9642 45.2694 13.982C45.3092 13.9998 45.3526 14.009 45.3965 14.009H47.2703C47.3549 14.0089 47.4366 13.9795 47.5008 13.9263C47.565 13.873 47.6074 13.7993 47.6205 13.7185L48.0396 11.1488C48.0583 11.0332 48.119 10.9278 48.2108 10.8517C48.3026 10.7756 48.4195 10.7337 48.5403 10.7337H49.6956C52.1011 10.7337 53.4885 9.60676 53.8515 7.37359C54.0154 6.39658 53.8579 5.62893 53.3855 5.09132C52.8671 4.50098 51.9473 4.18875 50.7254 4.18875ZM51.1466 7.49973C50.9474 8.76829 49.9465 8.76829 48.9781 8.76829H48.4277L48.8147 6.39917C48.8258 6.32985 48.8622 6.26668 48.9172 6.22107C48.9722 6.17546 49.0423 6.15044 49.1147 6.15052H49.3673C50.026 6.15052 50.6485 6.15052 50.9699 6.51445C51.1615 6.73156 51.2197 7.05413 51.1466 7.49973ZM61.6382 7.45889H59.8909C59.8184 7.45869 59.7483 7.48368 59.6933 7.52931C59.6382 7.57494 59.6019 7.63818 59.5909 7.70753L59.5135 8.18105L59.3907 8.00942C59.0122 7.4775 58.1687 7.29967 57.3263 7.29967C55.3943 7.29967 53.7448 8.71659 53.4234 10.7042C53.2568 11.6957 53.4933 12.6438 54.0742 13.3049C54.608 13.9128 55.3693 14.1661 56.2763 14.1661C57.8329 14.1661 58.6962 13.1969 58.6962 13.1969L58.6182 13.6673C58.6113 13.7094 58.6138 13.7525 58.6258 13.7936C58.6377 13.8347 58.6587 13.8728 58.6874 13.9052C58.716 13.9377 58.7516 13.9637 58.7916 13.9815C58.8317 13.9994 58.8752 14.0086 58.9193 14.0085H60.4936C60.6145 14.0084 60.7313 13.9665 60.8231 13.8904C60.9149 13.8143 60.9757 13.709 60.9944 13.5934L61.9398 7.79903C61.9465 7.75693 61.9437 7.71393 61.9316 7.67298C61.9195 7.63202 61.8985 7.59408 61.8698 7.56177C61.8411 7.52945 61.8056 7.50352 61.7656 7.48577C61.7256 7.46801 61.6822 7.45884 61.6382 7.45889ZM59.2012 10.7538C59.0336 11.721 58.2397 12.3703 57.2286 12.3703C56.722 12.3703 56.3152 12.2126 56.0547 11.9138C55.7963 11.6171 55.6992 11.1948 55.7803 10.7244C55.9389 9.76546 56.7439 9.09499 57.7395 9.09499C58.236 9.09499 58.6396 9.25472 58.9054 9.5561C59.1729 9.86057 59.2786 10.2855 59.2012 10.7538ZM63.6993 4.4374L62.2008 13.6688C62.194 13.7108 62.1966 13.7538 62.2085 13.7947C62.2204 13.8356 62.2414 13.8735 62.2699 13.9059C62.2984 13.9382 62.3338 13.9642 62.3737 13.982C62.4136 13.9998 62.457 14.009 62.5009 14.009H64.0074C64.2577 14.009 64.4702 13.8332 64.5086 13.5939L65.9863 4.52889C65.9932 4.48687 65.9906 4.44391 65.9787 4.40297C65.9667 4.36202 65.9458 4.32406 65.9173 4.29169C65.8888 4.25932 65.8534 4.23331 65.8135 4.21545C65.7736 4.19759 65.7302 4.18831 65.6863 4.18823H63.9994C63.9269 4.18848 63.857 4.21369 63.802 4.25935C63.747 4.305 63.7106 4.36812 63.6993 4.4374Z" fill="#5E5E5E"/>
<path d="M3.89355 15.7704L4.17275 14.0532L3.55082 14.0392H0.581055L2.64489 1.36755C2.65104 1.32883 2.67134 1.29354 2.70211 1.26811C2.73288 1.24268 2.77207 1.2288 2.81252 1.22901H7.81997C9.48235 1.22901 10.6296 1.56398 11.2286 2.22514C11.5094 2.5353 11.6882 2.85942 11.7747 3.21611C11.8654 3.59037 11.867 4.03752 11.7784 4.58289L11.772 4.62269V4.97214L12.0528 5.12619C12.2672 5.23135 12.4599 5.37361 12.6214 5.54594C12.8616 5.81113 13.0169 6.14817 13.0826 6.54776C13.1504 6.95873 13.128 7.44775 13.0169 8.00139C12.8888 8.63825 12.6817 9.19292 12.4019 9.6468C12.1551 10.0534 11.8233 10.4055 11.4277 10.6807C11.0561 10.936 10.6146 11.1299 10.1155 11.2539C9.63183 11.3759 9.08037 11.4375 8.47553 11.4375H8.08582C7.80715 11.4375 7.5365 11.5346 7.32403 11.7089C7.11186 11.8849 6.97111 12.1282 6.92685 12.3953L6.89749 12.5499L6.40421 15.5766L6.38179 15.6877C6.37592 15.7229 6.36578 15.7404 6.35083 15.7523C6.33635 15.7638 6.31828 15.7702 6.29958 15.7704H3.89355Z" fill="#5E5E5E"/>
<path d="M12.3188 4.66309C12.3038 4.75562 12.2867 4.85022 12.2675 4.9474C11.6072 8.23046 9.34793 9.36462 6.46251 9.36462H4.99337C4.6405 9.36462 4.34315 9.61275 4.28816 9.94979L3.53598 14.5691L3.32298 15.8785C3.31449 15.9305 3.31773 15.9836 3.33247 16.0342C3.34721 16.0848 3.37311 16.1317 3.40837 16.1717C3.44363 16.2117 3.48742 16.2438 3.53673 16.2658C3.58604 16.2879 3.63969 16.2993 3.694 16.2993H6.29968C6.60825 16.2993 6.87036 16.0822 6.91894 15.7876L6.94457 15.6594L7.43517 12.6446L7.46667 12.4792C7.51471 12.1835 7.77736 11.9664 8.08592 11.9664H8.47563C11.0002 11.9664 12.9765 10.9738 13.5541 8.10175C13.7954 6.90194 13.6705 5.90011 13.032 5.19553C12.8296 4.97757 12.5879 4.79714 12.3188 4.66309Z" fill="#8E8E8E"/>
<path d="M11.6269 4.39645C11.4161 4.33739 11.2016 4.29129 10.9847 4.25843C10.5562 4.19466 10.1231 4.16407 9.6896 4.16693H5.76479C5.61542 4.16682 5.47094 4.21846 5.35746 4.31251C5.24399 4.40656 5.169 4.53681 5.14606 4.67973L4.31113 9.8005L4.28711 9.9499C4.31312 9.78688 4.39852 9.63827 4.52787 9.53093C4.65722 9.4236 4.82197 9.36464 4.99232 9.36473H6.46145C9.34687 9.36473 11.6061 8.23005 12.2665 4.94751C12.2862 4.85032 12.3028 4.75572 12.3177 4.66319C12.1435 4.57471 11.9618 4.50052 11.7748 4.44143C11.7258 4.42567 11.6765 4.41068 11.6269 4.39645Z" fill="#5E5E5E"/>
<path d="M5.14794 4.6796C5.17069 4.53664 5.24564 4.40632 5.35917 4.31232C5.4727 4.21832 5.61729 4.16687 5.76667 4.16732H9.69148C10.1565 4.16732 10.5905 4.19678 10.9866 4.25881C11.2546 4.29961 11.519 4.36062 11.7772 4.44129C11.9721 4.50384 12.153 4.57776 12.3201 4.66306C12.5166 3.44981 12.3185 2.62374 11.6411 1.87574C10.8942 1.05226 9.54628 0.699707 7.82143 0.699707H2.81398C2.46165 0.699707 2.16109 0.947836 2.10664 1.2854L0.0209152 14.0873C0.0112003 14.1468 0.0148965 14.2075 0.0317496 14.2654C0.0486027 14.3234 0.0782128 14.3771 0.118543 14.4229C0.158873 14.4686 0.208966 14.5054 0.265377 14.5307C0.321787 14.5559 0.383176 14.569 0.44532 14.5691H3.53681L4.31301 9.80037L5.14794 4.6796Z" fill="#5E5E5E"/>
</g>
<defs>
<clipPath id="clip0_395_1350">
<rect width="66" height="17" fill="white"/>
</clipPath>
</defs>
</svg>
