<svg width="30" height="33" viewBox="0 0 30 33" fill="none" xmlns="http://www.w3.org/2000/svg">
<g clip-path="url(#clip0_395_2379)">
<path d="M3.2339 32.9996C3.04784 32.9652 2.86178 32.9394 2.68458 32.905C1.12522 32.5956 0.0620201 31.3581 0 29.7683C0 29.7167 0 29.6652 0 29.605C0 20.8738 0 12.1425 0 3.41127C0 1.8558 0.894861 0.6183 2.3479 0.162831C3.3225 -0.13795 4.24395 -0.0262312 5.12995 0.472206C12.6432 4.7433 20.1477 9.01439 27.661 13.2855C27.8559 13.3972 28.0419 13.5003 28.2369 13.6121C30.6025 14.9871 30.5936 18.0292 28.2191 19.3871C25.2953 21.0542 22.3627 22.7214 19.43 24.3886C14.7342 27.0613 10.0384 29.7253 5.35145 32.4066C4.77555 32.7331 4.16421 32.905 3.50856 32.9996C3.4111 32.9996 3.3225 32.9996 3.2339 32.9996ZM2.1264 16.4996C2.1264 20.8394 2.1264 25.1792 2.1264 29.5105C2.1264 29.9058 2.18842 30.2839 2.49852 30.5761C2.95924 31.0144 3.52628 31.0574 4.17307 30.6878C9.55995 27.6199 14.9557 24.5519 20.3426 21.4839C22.6019 20.1949 24.8612 18.9058 27.1294 17.6253C27.4926 17.4191 27.7584 17.1613 27.847 16.7488C27.9711 16.1386 27.723 15.7089 27.0053 15.305C22.5576 12.7785 18.1099 10.2519 13.671 7.71674C10.4903 5.91205 7.31837 4.10736 4.14649 2.29408C3.83638 2.12221 3.52628 2.01908 3.16302 2.08783C2.4808 2.23393 2.1264 2.70658 2.1264 3.48002C2.1264 7.81986 2.1264 12.1597 2.1264 16.4996Z" fill="white"/>
</g>
<defs>
<clipPath id="clip0_395_2379">
<rect width="30" height="33" fill="white"/>
</clipPath>
</defs>
</svg>
