<svg width="40" height="40" viewBox="0 0 40 40" fill="none" xmlns="http://www.w3.org/2000/svg">
<g clip-path="url(#clip0_395_4406)">
<path d="M0.000651042 19.2184C0.886068 17.0413 1.77148 14.8643 2.66732 12.6872C3.33398 11.0518 4.39648 10.333 6.1569 10.333C9.75065 10.333 13.3444 10.333 16.9382 10.333C17.084 10.333 17.2298 10.333 17.3652 10.3538C17.7194 10.4163 17.9277 10.6768 17.8965 11.0101C17.8652 11.3538 17.6569 11.5622 17.3132 11.5726C16.8548 11.5934 16.3965 11.5934 15.9486 11.5726C15.6882 11.5622 15.584 11.6351 15.5632 11.9163C15.4486 14.3747 15.3027 16.833 15.1882 19.2913C15.1465 20.2497 15.834 21.083 16.709 21.1663C17.6257 21.2601 18.4382 20.6351 18.5319 19.6351C18.6048 18.9476 18.5111 18.2288 18.4798 17.5309C18.4486 16.8955 18.4069 16.2601 18.3652 15.6247C18.3444 15.1351 18.5527 14.8434 18.9486 14.8226C19.3444 14.8018 19.584 15.0622 19.6152 15.5622C19.6882 16.8538 19.7507 18.1351 19.834 19.4268C19.8965 20.4684 20.4798 21.0726 21.5111 21.1872C21.9069 21.2288 22.1569 21.4893 22.1361 21.8434C22.1257 22.208 21.8548 22.4372 21.459 22.4372C20.6882 22.4268 20.0423 22.1247 19.5007 21.5934C19.3965 21.4997 19.3236 21.3747 19.2298 21.2601C17.8027 22.9059 15.7611 22.7393 14.5423 21.2913C13.9277 21.9997 13.1777 22.4476 12.2194 22.4476C11.2715 22.4476 10.5215 22.0205 9.89648 21.2913C9.27148 22.0101 8.52148 22.4476 7.56315 22.4476C6.61523 22.4476 5.86523 22.0205 5.32357 21.3851C4.7819 21.708 4.30273 22.1038 3.74023 22.3018C2.2819 22.8122 0.677734 21.9476 0.146484 20.4372C0.094401 20.2913 0.0423177 20.1559 -0.00976562 20.0101C0.000651042 19.7393 0.000651042 19.4788 0.000651042 19.2184ZM10.6882 11.583C9.93815 11.583 9.2194 11.5934 8.51107 11.5726C8.24023 11.5622 8.12565 11.6559 8.05273 11.9163C7.35482 14.333 6.64648 16.7601 5.95898 19.1768C5.9069 19.3434 5.89648 19.5413 5.92773 19.708C6.07357 20.583 6.76107 21.1768 7.5944 21.1663C8.41732 21.1663 9.0944 20.5622 9.24023 19.6872C9.54232 17.9893 9.8444 16.2809 10.1465 14.583C10.3236 13.6038 10.5007 12.6247 10.6882 11.583ZM11.9798 11.6038C11.9486 11.6768 11.9277 11.708 11.9277 11.7497C11.4694 14.2601 11.0111 16.7601 10.5632 19.2705C10.5319 19.4476 10.5527 19.6351 10.5944 19.8122C10.7923 20.6872 11.5319 21.2393 12.3861 21.1768C13.209 21.1143 13.8652 20.4163 13.9173 19.5205C14.0632 16.9372 14.209 14.3538 14.3444 11.7601C14.3444 11.708 14.3236 11.6663 14.3132 11.6038C13.5215 11.6038 12.7611 11.6038 11.9798 11.6038ZM6.85482 11.5934C6.47982 11.5934 6.1569 11.583 5.83398 11.5934C4.89648 11.6247 4.26107 12.1038 3.9069 12.9372C3.04232 15.0101 2.18815 17.0934 1.3444 19.1768C1.26107 19.3851 1.25065 19.6663 1.30273 19.8851C1.51107 20.7184 2.24023 21.2288 3.07357 21.1559C3.86523 21.0934 4.50065 20.4163 4.60482 19.5726C4.63607 19.3122 4.67773 19.0622 4.75065 18.8122C5.20898 17.2288 5.67773 15.6455 6.13607 14.0622C6.37565 13.2601 6.60482 12.4476 6.85482 11.5934Z" fill="#191919"/>
<path d="M3.36393 40C3.04102 39.8021 2.94727 39.5208 2.94727 39.1458C2.95768 34.0313 2.95768 28.9167 2.95768 23.7917C2.95768 23.6979 2.95768 23.6042 2.9681 23.5208C3.00977 23.1875 3.19727 23 3.52018 22.9688C3.8431 22.9375 4.08268 23.0938 4.16602 23.4167C4.20768 23.5729 4.20768 23.75 4.20768 23.9167C4.20768 28.6979 4.20768 33.4688 4.20768 38.25C4.20768 38.4063 4.20768 38.5521 4.20768 38.7292C12.666 38.7292 21.0827 38.7292 29.5514 38.7292C29.5514 38.5729 29.5514 38.4167 29.5514 38.2708C29.5514 35.6979 29.5514 33.1146 29.5514 30.5417C29.5514 30.3958 29.541 30.25 29.5723 30.1146C29.6348 29.7708 29.9056 29.5521 30.2389 29.5833C30.5827 29.6146 30.7806 29.8125 30.8014 30.1667C30.8119 30.2396 30.8014 30.3229 30.8014 30.3958C30.8014 33.3125 30.8014 36.2292 30.8118 39.1458C30.8118 39.5208 30.7181 39.8021 30.3952 40C21.3743 40 12.3639 40 3.36393 40Z" fill="#191919"/>
<path d="M20.3654 10.2817C20.3446 4.00045 25.4175 -0.562048 31.2092 0.0525349C36.4279 0.615035 40.2821 5.13587 39.98 10.365C39.8967 11.938 39.4488 13.4067 38.6571 14.7713C36.0529 19.1984 33.4279 23.615 30.8133 28.0317C30.4175 28.7088 29.9175 28.7088 29.5217 28.0317C26.8967 23.6046 24.2717 19.1671 21.6675 14.7296C20.7821 13.2192 20.355 11.5734 20.3654 10.2817ZM30.1779 26.6567C30.2821 26.49 30.355 26.365 30.4279 26.24C32.7821 22.2505 35.1363 18.2713 37.4904 14.2817C38.5008 12.5838 38.8967 10.7505 38.6779 8.7817C38.1467 4.0317 33.5633 0.552535 28.8342 1.33378C22.8029 2.33378 19.6988 8.9692 22.8029 14.2296C25.1675 18.24 27.5425 22.24 29.9071 26.2505C30.0008 26.3755 30.0738 26.49 30.1779 26.6567Z" fill="#191919"/>
<path d="M7.86477 33.5207C7.86477 32.1665 7.80227 30.8124 7.87519 29.4582C8.00019 27.1665 9.91686 25.4374 12.2085 25.4582C14.4794 25.479 16.396 27.2707 16.4481 29.5624C16.5106 32.2707 16.4689 34.979 16.4689 37.6874C16.4689 38.1144 16.2085 38.3749 15.8335 38.3749C15.4585 38.3644 15.2294 38.104 15.2294 37.6665C15.2294 35.0624 15.2294 32.4582 15.2294 29.854C15.2294 28.2811 14.1877 27.0415 12.6773 26.7499C11.0314 26.4374 9.34394 27.6561 9.13561 29.3228C9.10436 29.5832 9.09394 29.8436 9.09394 30.104C9.09394 32.5415 9.09394 34.9686 9.09394 37.4061C9.09394 37.5624 9.10436 37.7186 9.07311 37.8749C9.01061 38.1769 8.81269 38.354 8.51061 38.3644C8.19811 38.3853 7.97936 38.229 7.89602 37.9269C7.85436 37.7811 7.85436 37.6144 7.85436 37.4686C7.85436 36.1561 7.85436 34.8436 7.85436 33.5207C7.85436 33.5207 7.85436 33.5207 7.86477 33.5207Z" fill="#191919"/>
<path d="M23.3444 34.0003C22.2402 34.0003 21.1361 34.0003 20.0215 34.0003C19.4486 34.0003 19.2402 33.792 19.2402 33.2191C19.2402 31.4482 19.2402 29.6774 19.2402 27.9066C19.2402 27.3649 19.459 27.1357 20.0007 27.1357C22.2507 27.1253 24.5007 27.1253 26.7507 27.1357C27.2715 27.1357 27.4902 27.3753 27.4902 27.8857C27.4902 29.6774 27.4902 31.4795 27.4902 33.2712C27.4902 33.7607 27.2611 33.9899 26.7715 33.9899C25.6361 34.0003 24.4902 34.0003 23.3444 34.0003ZM20.5111 28.417C20.5111 29.8649 20.5111 31.292 20.5111 32.7191C22.4277 32.7191 24.3236 32.7191 26.2194 32.7191C26.2194 31.2712 26.2194 29.8545 26.2194 28.417C24.3132 28.417 22.4277 28.417 20.5111 28.417Z" fill="#191919"/>
<path d="M23.3541 36.1045C21.927 36.1045 20.4895 36.1045 19.0624 36.1045C18.7603 36.1045 18.5207 36.0316 18.3853 35.7503C18.2186 35.417 18.3957 35.0107 18.7603 34.9066C18.9061 34.8649 19.0728 34.8545 19.2186 34.8545C21.9895 34.8545 24.7603 34.8545 27.5311 34.8545C27.6041 34.8545 27.6874 34.8545 27.7603 34.8545C28.1561 34.8962 28.4166 35.1566 28.4061 35.5003C28.3957 35.8545 28.1353 36.0941 27.7186 36.0941C26.2707 36.1149 24.8124 36.1045 23.3541 36.1045Z" fill="#191919"/>
<path d="M13.1986 33.1357C13.5215 33.1357 13.8236 33.4274 13.8236 33.7607C13.8236 34.0941 13.5423 34.3753 13.209 34.3753C12.8652 34.3753 12.584 34.1045 12.584 33.7607C12.584 33.4378 12.8652 33.1462 13.1986 33.1357Z" fill="#191919"/>
<path d="M36.1361 9.81283C36.1465 13.0941 33.4694 15.7816 30.1882 15.7816C26.8965 15.7816 24.2194 13.1357 24.209 9.84408C24.1986 6.53158 26.8653 3.85449 30.1778 3.85449C33.4694 3.85449 36.1361 6.52116 36.1361 9.81283ZM25.459 9.79199C25.4486 12.4066 27.5423 14.5212 30.1465 14.5316C32.7611 14.542 34.8757 12.4378 34.8861 9.83366C34.8965 7.25033 32.7611 5.10449 30.1673 5.10449C27.5944 5.10449 25.4694 7.20866 25.459 9.79199Z" fill="#191919"/>
<path d="M30.166 12.667C28.5723 12.667 27.3223 11.3962 27.3223 9.80241C27.3223 8.22949 28.6139 6.94824 30.1764 6.94824C31.7389 6.94824 33.0306 8.26074 33.0306 9.82324C33.0202 11.4066 31.7389 12.6774 30.166 12.667ZM30.1868 11.417C31.0827 11.4066 31.8014 10.6774 31.7806 9.79199C31.7598 8.91699 31.041 8.20866 30.1764 8.20866C29.2806 8.20866 28.5723 8.92741 28.5723 9.82324C28.5723 10.7295 29.2806 11.4274 30.1868 11.417Z" fill="#191919"/>
</g>
<defs>
<clipPath id="clip0_395_4406">
<rect width="40" height="40" fill="white"/>
</clipPath>
</defs>
</svg>
