<svg width="37" height="15" viewBox="0 0 37 15" fill="none" xmlns="http://www.w3.org/2000/svg">
<g clip-path="url(#clip0_395_1362)">
<path fill-rule="evenodd" clip-rule="evenodd" d="M3.86372 6.77673C3.06699 6.48954 2.63036 6.26618 2.63036 5.91517C2.63036 5.6173 2.88142 5.44714 3.32894 5.44714C4.14752 5.44714 4.98788 5.75563 5.56637 6.03212L5.89381 4.06443C5.4354 3.85167 4.49673 3.50067 3.19796 3.50067C2.28115 3.50067 1.51708 3.73464 0.971414 4.17076C0.403808 4.62811 0.109117 5.28759 0.109117 6.08533C0.109117 7.53187 1.01504 8.14884 2.4885 8.67C3.43805 8.9997 3.7546 9.23376 3.7546 9.59537C3.7546 9.94638 3.44894 10.1484 2.8923 10.1484C2.20469 10.1484 1.06964 9.81874 0.327434 9.3933L0 11.3823C0.633011 11.7333 1.81177 12.0949 3.03425 12.0949C4.00558 12.0949 4.81327 11.8716 5.35903 11.4461C5.97018 10.9781 6.28673 10.2868 6.28673 9.3933C6.28673 7.91478 5.35902 7.29789 3.86372 6.77673ZM11.6171 5.6173L11.9445 3.66021H10.2159V1.28439L7.89181 1.6571L7.55619 3.66021L6.73875 3.78945L6.43276 5.6173H7.55283V9.45712C7.55283 10.4569 7.81478 11.1483 8.34956 11.5738C8.79708 11.9248 9.44098 12.0949 10.3469 12.0949C11.0454 12.0949 11.4711 11.978 11.7658 11.9035V9.82935C11.602 9.87195 11.231 9.94638 10.9799 9.94638C10.4451 9.94638 10.2159 9.68049 10.2159 9.07421V5.6173H11.6171ZM16.8082 3.5459C16.0442 3.5459 15.433 3.93679 15.1929 4.6388L15.0292 3.66021H12.6608V11.9354H15.3675V6.56397C15.7059 6.15976 16.1861 6.01361 16.841 6.01361C16.9829 6.01361 17.1357 6.01361 17.3212 6.04552V3.60972C17.1357 3.5672 16.9719 3.5459 16.8082 3.5459ZM19.3404 2.84118C20.1263 2.84118 20.7593 2.21368 20.7593 1.44785C20.7593 0.671333 20.1263 0.0544434 19.3404 0.0544434C18.5436 0.0544434 17.9106 0.671333 17.9106 1.44785C17.9106 2.21368 18.5436 2.84118 19.3404 2.84118ZM17.9761 3.66021H20.6938V11.9354H17.9761V3.66021ZM28.3953 4.40474C27.915 3.79846 27.2493 3.50067 26.3979 3.50067C25.6121 3.50067 24.9245 3.81976 24.2805 4.48986L24.1387 3.66021H21.7593V14.9987L24.4661 14.5626V11.9035C24.8808 12.0311 25.3064 12.0949 25.6885 12.0949C26.3652 12.0949 27.3475 11.9248 28.1115 11.1164C28.8427 10.3399 29.2139 9.13803 29.2139 7.55317C29.2139 6.14915 28.941 5.08553 28.3953 4.40474ZM26.1469 9.51025C25.9286 9.91447 25.5903 10.1272 25.1973 10.1272C24.9245 10.1272 24.6843 10.074 24.4661 9.96768V6.03212C24.9245 5.56417 25.3392 5.51096 25.492 5.51096C26.1796 5.51096 26.518 6.23427 26.518 7.64889C26.518 8.45724 26.3979 9.08482 26.1469 9.51025ZM36.9741 7.72332C36.9741 6.40443 36.6794 5.36202 36.1009 4.62811C35.5115 3.88358 34.6274 3.50067 33.5033 3.50067C31.2003 3.50067 29.7705 5.15996 29.7705 7.81905C29.7705 9.30819 30.1525 10.425 30.9056 11.1376C31.5823 11.7758 32.5537 12.0949 33.8088 12.0949C34.9657 12.0949 36.0354 11.829 36.7121 11.3929L36.4174 9.58476C35.7516 9.93577 34.9767 10.1272 34.1035 10.1272C33.5796 10.1272 33.2195 10.0208 32.9575 9.79744C32.6737 9.56346 32.51 9.18055 32.4555 8.63809H36.9413C36.9522 8.51045 36.9741 7.91478 36.9741 7.72332ZM32.4336 7.02132C32.51 5.84067 32.8374 5.28759 33.4595 5.28759C34.0708 5.28759 34.3873 5.85136 34.431 7.02132H32.4336Z" fill="#5E5E5E"/>
</g>
<defs>
<clipPath id="clip0_395_1362">
<rect width="37" height="15" fill="white"/>
</clipPath>
</defs>
</svg>
