<svg width="49" height="15" viewBox="0 0 49 15" fill="none" xmlns="http://www.w3.org/2000/svg">
<g clip-path="url(#clip0_395_1344)">
<path d="M0 0.136475C0.410615 0.136475 0.821229 0.136475 1.23184 0.136475C2.8743 0.136475 4.37989 0.136475 6.02235 0.136475C7.25419 0.136475 7.80168 0.545565 8.07542 1.77284C8.48603 3.54557 8.75978 5.18193 9.17039 6.95466C9.17039 7.09102 9.17039 7.22738 9.17039 7.22738C8.75978 6.54557 8.34916 5.86375 7.80168 5.18193C5.88548 2.72738 3.28492 1.22738 0.136872 0.409202H0C0 0.409202 0 0.272838 0 0.136475Z" fill="#5E5E5E"/>
<path d="M49.0003 14.8637C47.9053 14.8637 46.6734 14.8637 45.5785 14.8637C45.4416 14.8637 45.3047 14.7273 45.3047 14.591C45.1679 14.0455 45.1679 13.5001 45.031 12.9546C45.031 12.8183 44.7572 12.6819 44.6204 12.6819C43.1148 12.6819 41.6092 12.6819 40.1036 12.6819C39.9667 12.6819 39.8299 12.8183 39.693 12.9546C39.4193 13.5001 39.2824 14.0455 39.0086 14.591C39.0086 14.7273 38.7349 14.8637 38.598 14.8637C37.3662 14.8637 35.9975 14.8637 34.7656 14.8637C34.7656 14.7273 34.9025 14.591 34.9025 14.4546C36.8187 10.2273 38.7349 6.00007 40.5142 1.7728C40.9248 0.818254 41.6092 0.2728 42.7042 0.409164C43.6623 0.409164 44.4835 0.409164 45.4416 0.409164C45.7153 0.409164 45.8522 0.409164 45.8522 0.681891C46.9472 5.45462 47.9053 10.091 49.0003 14.7273C49.1371 14.7273 49.0003 14.7273 49.0003 14.8637ZM43.1148 4.36371C42.2936 6.13644 41.6092 7.7728 40.9248 9.54553C42.0198 9.54553 43.1148 9.54553 44.2098 9.54553C43.7991 7.90916 43.5254 6.13644 43.1148 4.36371Z" fill="#5E5E5E"/>
<path d="M24.2259 11.0455C25.0471 11.3182 25.8684 11.591 26.8265 11.8637C27.7846 12 28.7427 12.1364 29.7008 11.8637C29.9745 11.7273 30.2482 11.7273 30.3851 11.591C31.0695 11.1819 31.0695 10.3637 30.522 9.81822C30.1114 9.5455 29.7008 9.27277 29.2901 9.00004C28.7427 8.59095 28.0583 8.31822 27.3739 8.0455C24.089 6.00004 25.184 2.72731 27.3739 1.36368C29.0164 0.272768 30.9326 4.0859e-05 32.8488 0.136404C33.67 0.136404 34.4913 0.409132 35.3125 0.545495C35.4494 0.545495 35.5862 0.818223 35.5862 0.954586C35.4494 1.90913 35.3125 2.86368 35.1756 3.81822C34.0806 3.27277 32.8488 3.00004 31.7538 3.1364C31.2063 3.1364 30.6589 3.27277 30.2482 3.5455C29.427 3.95459 29.427 4.6364 30.1114 5.18186C30.6589 5.59095 31.3432 5.86368 32.0276 6.27277C32.5751 6.5455 32.9857 6.81822 33.5332 7.09095C35.4494 8.45459 35.86 10.9091 34.3544 12.8182C33.5332 13.7728 32.4382 14.3182 31.3432 14.7273C29.0164 15.4091 26.6896 15.1364 24.3628 14.4546C24.089 14.3182 23.9521 14.1819 23.9521 13.9091C23.9521 12.9546 24.089 12 24.2259 11.0455Z" fill="#5E5E5E"/>
<path d="M3.96973 2.72725C5.33844 3.6818 6.57029 4.77271 7.66526 5.99998C8.76023 7.22725 9.58146 8.45452 9.99207 10.0909C10.5396 8.72725 11.087 7.36361 11.6345 5.86361C12.3189 4.22725 13.0032 2.45452 13.6876 0.681796C13.8245 0.409069 13.9613 0.272705 14.2351 0.272705C15.4669 0.272705 16.6988 0.272705 18.0675 0.272705C17.52 1.63634 16.8356 2.99998 16.2882 4.36361C14.7826 7.77271 13.4139 11.0454 11.9083 14.4545C11.7714 14.7273 11.6345 14.8636 11.2239 14.8636C10.1289 14.8636 8.8971 14.8636 7.80213 14.8636C7.52839 14.8636 7.39151 14.7273 7.39151 14.5909C6.29654 10.6363 5.20157 6.81816 4.1066 2.99998C4.1066 2.99998 4.1066 2.86361 3.96973 2.72725Z" fill="#5E5E5E"/>
<path d="M21.2154 14.8636C19.8467 14.8636 18.6148 14.8636 17.2461 14.8636C18.0673 9.95452 18.8886 5.1818 19.7098 0.272705C21.0785 0.272705 22.3103 0.272705 23.6791 0.272705C22.8578 5.1818 22.0366 9.95452 21.2154 14.8636Z" fill="#5E5E5E"/>
</g>
<defs>
<clipPath id="clip0_395_1344">
<rect width="49" height="15" fill="white"/>
</clipPath>
</defs>
</svg>
